REM GoldWave
FILE "Зазнобин В.М. Беседа о творчестве А.С. Пушкина (5 июня 2016 г.).m4a" BINARY
  TRACK 01 AUDIO
    TITLE "00:00:00.00000"
    PERFORMER "Владимир Михайлович Зазнобин. Видеоархив"
    INDEX 01 00:00:00
  TRACK 02 AUDIO
    TITLE "00:00:14.35590"
    PERFORMER "Владимир Михайлович Зазнобин. Видеоархив"
    INDEX 01 00:14:27
  TRACK 03 AUDIO
    TITLE "00:00:29.12696"
    PERFORMER "Владимир Михайлович Зазнобин. Видеоархив"
    INDEX 01 00:29:10
  TRACK 04 AUDIO
    TITLE "00:00:42.42914"
    PERFORMER "Владимир Михайлович Зазнобин. Видеоархив"
    INDEX 01 00:42:32
  TRACK 05 AUDIO
    TITLE "00:00:55.78703"
    PERFORMER "Владимир Михайлович Зазнобин. Видеоархив"
    INDEX 01 00:55:59
  TRACK 06 AUDIO
    TITLE "00:01:08.94571"
    PERFORMER "Владимир Михайлович Зазнобин. Видеоархив"
    INDEX 01 01:08:71
  TRACK 07 AUDIO
    TITLE "00:01:22.63519"
    PERFORMER "Владимир Михайлович Зазнобин. Видеоархив"
    INDEX 01 01:22:48
  TRACK 08 AUDIO
    TITLE "00:01:35.74093"
    PERFORMER "Владимир Михайлович Зазнобин. Видеоархив"
    INDEX 01 01:35:56
  TRACK 09 AUDIO
    TITLE "00:01:52.99653"
    PERFORMER "Владимир Михайлович Зазнобин. Видеоархив"
    INDEX 01 01:53:00
  TRACK 10 AUDIO
    TITLE "00:02:08.30862"
    PERFORMER "Владимир Михайлович Зазнобин. Видеоархив"
    INDEX 01 02:08:23
  TRACK 11 AUDIO
    TITLE "00:02:21.67025"
    PERFORMER "Владимир Михайлович Зазнобин. Видеоархив"
    INDEX 01 02:21:50
  TRACK 12 AUDIO
    TITLE "00:02:34.48388"
    PERFORMER "Владимир Михайлович Зазнобин. Видеоархив"
    INDEX 01 02:34:36
  TRACK 13 AUDIO
    TITLE "00:02:47.68712"
    PERFORMER "Владимир Михайлович Зазнобин. Видеоархив"
    INDEX 01 02:47:52
  TRACK 14 AUDIO
    TITLE "00:03:00.99395"
    PERFORMER "Владимир Михайлович Зазнобин. Видеоархив"
    INDEX 01 03:01:00
  TRACK 15 AUDIO
    TITLE "00:03:17.48376"
    PERFORMER "Владимир Михайлович Зазнобин. Видеоархив"
    INDEX 01 03:17:36
  TRACK 16 AUDIO
    TITLE "00:03:30.89415"
    PERFORMER "Владимир Михайлович Зазнобин. Видеоархив"
    INDEX 01 03:30:67
  TRACK 17 AUDIO
    TITLE "00:03:44.25204"
    PERFORMER "Владимир Михайлович Зазнобин. Видеоархив"
    INDEX 01 03:44:19
  TRACK 18 AUDIO
    TITLE "00:03:58.09385"
    PERFORMER "Владимир Михайлович Зазнобин. Видеоархив"
    INDEX 01 03:58:07
  TRACK 19 AUDIO
    TITLE "00:04:11.70206"
    PERFORMER "Владимир Михайлович Зазнобин. Видеоархив"
    INDEX 01 04:11:53
  TRACK 20 AUDIO
    TITLE "00:04:25.37807"
    PERFORMER "Владимир Михайлович Зазнобин. Видеоархив"
    INDEX 01 04:25:28
  TRACK 21 AUDIO
    TITLE "00:04:40.82113"
    PERFORMER "Владимир Михайлович Зазнобин. Видеоархив"
    INDEX 01 04:40:62
  TRACK 22 AUDIO
    TITLE "00:04:54.47533"
    PERFORMER "Владимир Михайлович Зазнобин. Видеоархив"
    INDEX 01 04:54:36
  TRACK 23 AUDIO
    TITLE "00:05:08.69329"
    PERFORMER "Владимир Михайлович Зазнобин. Видеоархив"
    INDEX 01 05:08:52
  TRACK 24 AUDIO
    TITLE "00:05:21.50925"
    PERFORMER "Владимир Михайлович Зазнобин. Видеоархив"
    INDEX 01 05:21:38
  TRACK 25 AUDIO
    TITLE "00:05:34.56204"
    PERFORMER "Владимир Михайлович Зазнобин. Видеоархив"
    INDEX 01 05:34:42
  TRACK 26 AUDIO
    TITLE "00:05:50.22660"
    PERFORMER "Владимир Михайлович Зазнобин. Видеоархив"
    INDEX 01 05:50:17
  TRACK 27 AUDIO
    TITLE "00:06:04.37864"
    PERFORMER "Владимир Михайлович Зазнобин. Видеоархив"
    INDEX 01 06:04:28
  TRACK 28 AUDIO
    TITLE "00:06:20.04739"
    PERFORMER "Владимир Михайлович Зазнобин. Видеоархив"
    INDEX 01 06:20:04
  TRACK 29 AUDIO
    TITLE "00:06:35.00005"
    PERFORMER "Владимир Михайлович Зазнобин. Видеоархив"
    INDEX 01 06:35:00
  TRACK 30 AUDIO
    TITLE "00:06:48.60685"
    PERFORMER "Владимир Михайлович Зазнобин. Видеоархив"
    INDEX 01 06:48:46
  TRACK 31 AUDIO
    TITLE "00:07:02.85363"
    PERFORMER "Владимир Михайлович Зазнобин. Видеоархив"
    INDEX 01 07:02:64
  TRACK 32 AUDIO
    TITLE "00:07:17.21324"
    PERFORMER "Владимир Михайлович Зазнобин. Видеоархив"
    INDEX 01 07:17:16
  TRACK 33 AUDIO
    TITLE "00:07:30.97331"
    PERFORMER "Владимир Михайлович Зазнобин. Видеоархив"
    INDEX 01 07:30:73
  TRACK 34 AUDIO
    TITLE "00:07:44.58152"
    PERFORMER "Владимир Михайлович Зазнобин. Видеоархив"
    INDEX 01 07:44:44
  TRACK 35 AUDIO
    TITLE "00:07:58.99454"
    PERFORMER "Владимир Михайлович Зазнобин. Видеоархив"
    INDEX 01 07:59:00
  TRACK 36 AUDIO
    TITLE "00:08:12.23215"
    PERFORMER "Владимир Михайлович Зазнобин. Видеоархив"
    INDEX 01 08:12:17
  TRACK 37 AUDIO
    TITLE "00:08:25.55896"
    PERFORMER "Владимир Михайлович Зазнобин. Видеоархив"
    INDEX 01 08:25:42
  TRACK 38 AUDIO
    TITLE "00:08:40.74379"
    PERFORMER "Владимир Михайлович Зазнобин. Видеоархив"
    INDEX 01 08:40:56
  TRACK 39 AUDIO
    TITLE "00:08:55.75356"
    PERFORMER "Владимир Михайлович Зазнобин. Видеоархив"
    INDEX 01 08:55:57
  TRACK 40 AUDIO
    TITLE "00:09:08.82354"
    PERFORMER "Владимир Михайлович Зазнобин. Видеоархив"
    INDEX 01 09:08:62
  TRACK 41 AUDIO
    TITLE "00:09:23.11721"
    PERFORMER "Владимир Михайлович Зазнобин. Видеоархив"
    INDEX 01 09:23:09
  TRACK 42 AUDIO
    TITLE "00:09:38.32018"
    PERFORMER "Владимир Михайлович Зазнобин. Видеоархив"
    INDEX 01 09:38:24
  TRACK 43 AUDIO
    TITLE "00:09:53.90626"
    PERFORMER "Владимир Михайлович Зазнобин. Видеоархив"
    INDEX 01 09:53:68
  TRACK 44 AUDIO
    TITLE "00:10:07.70859"
    PERFORMER "Владимир Михайлович Зазнобин. Видеоархив"
    INDEX 01 10:07:53
  TRACK 45 AUDIO
    TITLE "00:10:21.91311"
    PERFORMER "Владимир Михайлович Зазнобин. Видеоархив"
    INDEX 01 10:21:68
  TRACK 46 AUDIO
    TITLE "00:10:34.93245"
    PERFORMER "Владимир Михайлович Зазнобин. Видеоархив"
    INDEX 01 10:34:70
  TRACK 47 AUDIO
    TITLE "00:10:47.87007"
    PERFORMER "Владимир Михайлович Зазнобин. Видеоархив"
    INDEX 01 10:47:65
  TRACK 48 AUDIO
    TITLE "00:11:03.17753"
    PERFORMER "Владимир Михайлович Зазнобин. Видеоархив"
    INDEX 01 11:03:13
  TRACK 49 AUDIO
    TITLE "00:11:17.96995"
    PERFORMER "Владимир Михайлович Зазнобин. Видеоархив"
    INDEX 01 11:17:73
  TRACK 50 AUDIO
    TITLE "00:11:32.38621"
    PERFORMER "Владимир Михайлович Зазнобин. Видеоархив"
    INDEX 01 11:32:29
  TRACK 51 AUDIO
    TITLE "00:11:49.45794"
    PERFORMER "Владимир Михайлович Зазнобин. Видеоархив"
    INDEX 01 11:49:34
  TRACK 52 AUDIO
    TITLE "00:12:02.95655"
    PERFORMER "Владимир Михайлович Зазнобин. Видеоархив"
    INDEX 01 12:02:72
  TRACK 53 AUDIO
    TITLE "00:12:16.21043"
    PERFORMER "Владимир Михайлович Зазнобин. Видеоархив"
    INDEX 01 12:16:16
  TRACK 54 AUDIO
    TITLE "00:12:29.22977"
    PERFORMER "Владимир Михайлович Зазнобин. Видеоархив"
    INDEX 01 12:29:17
  TRACK 55 AUDIO
    TITLE "00:12:42.39311"
    PERFORMER "Владимир Михайлович Зазнобин. Видеоархив"
    INDEX 01 12:42:29
  TRACK 56 AUDIO
    TITLE "00:12:59.61526"
    PERFORMER "Владимир Михайлович Зазнобин. Видеоархив"
    INDEX 01 12:59:46
  TRACK 57 AUDIO
    TITLE "00:13:13.82116"
    PERFORMER "Владимир Михайлович Зазнобин. Видеоархив"
    INDEX 01 13:13:62
  TRACK 58 AUDIO
    TITLE "00:13:28.05537"
    PERFORMER "Владимир Михайлович Зазнобин. Видеоархив"
    INDEX 01 13:28:04
  TRACK 59 AUDIO
    TITLE "00:13:42.01887"
    PERFORMER "Владимир Михайлович Зазнобин. Видеоархив"
    INDEX 01 13:42:01
  TRACK 60 AUDIO
    TITLE "00:13:56.13977"
    PERFORMER "Владимир Михайлович Зазнобин. Видеоархив"
    INDEX 01 13:56:10
  TRACK 61 AUDIO
    TITLE "00:14:10.09628"
    PERFORMER "Владимир Михайлович Зазнобин. Видеоархив"
    INDEX 01 14:10:07
  TRACK 62 AUDIO
    TITLE "00:14:25.22540"
    PERFORMER "Владимир Михайлович Зазнобин. Видеоархив"
    INDEX 01 14:25:17
  TRACK 63 AUDIO
    TITLE "00:14:38.34229"
    PERFORMER "Владимир Михайлович Зазнобин. Видеоархив"
    INDEX 01 14:38:26
  TRACK 64 AUDIO
    TITLE "00:14:51.82420"
    PERFORMER "Владимир Михайлович Зазнобин. Видеоархив"
    INDEX 01 14:51:62
  TRACK 65 AUDIO
    TITLE "00:15:05.40499"
    PERFORMER "Владимир Михайлович Зазнобин. Видеоархив"
    INDEX 01 15:05:30
  TRACK 66 AUDIO
    TITLE "00:15:18.93751"
    PERFORMER "Владимир Михайлович Зазнобин. Видеоархив"
    INDEX 01 15:18:70
  TRACK 67 AUDIO
    TITLE "00:15:32.41710"
    PERFORMER "Владимир Михайлович Зазнобин. Видеоархив"
    INDEX 01 15:32:31
  TRACK 68 AUDIO
    TITLE "00:15:45.41880"
    PERFORMER "Владимир Михайлович Зазнобин. Видеоархив"
    INDEX 01 15:45:31
  TRACK 69 AUDIO
    TITLE "00:16:02.38136"
    PERFORMER "Владимир Михайлович Зазнобин. Видеоархив"
    INDEX 01 16:02:29
  TRACK 70 AUDIO
    TITLE "00:16:16.51760"
    PERFORMER "Владимир Михайлович Зазнобин. Видеоархив"
    INDEX 01 16:16:39
  TRACK 71 AUDIO
    TITLE "00:16:30.20941"
    PERFORMER "Владимир Михайлович Зазнобин. Видеоархив"
    INDEX 01 16:30:16
  TRACK 72 AUDIO
    TITLE "00:16:44.65587"
    PERFORMER "Владимир Михайлович Зазнобин. Видеоархив"
    INDEX 01 16:44:49
  TRACK 73 AUDIO
    TITLE "00:16:59.16129"
    PERFORMER "Владимир Михайлович Зазнобин. Видеоархив"
    INDEX 01 16:59:12
  TRACK 74 AUDIO
    TITLE "00:17:15.00234"
    PERFORMER "Владимир Михайлович Зазнобин. Видеоархив"
    INDEX 01 17:15:00
  TRACK 75 AUDIO
    TITLE "00:17:27.99245"
    PERFORMER "Владимир Михайлович Зазнобин. Видеоархив"
    INDEX 01 17:27:74
  TRACK 76 AUDIO
    TITLE "00:17:42.12728"
    PERFORMER "Владимир Михайлович Зазнобин. Видеоархив"
    INDEX 01 17:42:10
  TRACK 77 AUDIO
    TITLE "00:17:58.48984"
    PERFORMER "Владимир Михайлович Зазнобин. Видеоархив"
    INDEX 01 17:58:37
  TRACK 78 AUDIO
    TITLE "00:18:12.65023"
    PERFORMER "Владимир Михайлович Зазнобин. Видеоархив"
    INDEX 01 18:12:49
  TRACK 79 AUDIO
    TITLE "00:18:26.74884"
    PERFORMER "Владимир Михайлович Зазнобин. Видеоархив"
    INDEX 01 18:26:56
  TRACK 80 AUDIO
    TITLE "00:18:39.66000"
    PERFORMER "Владимир Михайлович Зазнобин. Видеоархив"
    INDEX 01 18:39:50
  TRACK 81 AUDIO
    TITLE "00:18:53.72333"
    PERFORMER "Владимир Михайлович Зазнобин. Видеоархив"
    INDEX 01 18:53:54
  TRACK 82 AUDIO
    TITLE "00:19:06.67859"
    PERFORMER "Владимир Михайлович Зазнобин. Видеоархив"
    INDEX 01 19:06:51
  TRACK 83 AUDIO
    TITLE "00:19:20.94347"
    PERFORMER "Владимир Михайлович Зазнобин. Видеоархив"
    INDEX 01 19:20:71
  TRACK 84 AUDIO
    TITLE "00:19:34.05989"
    PERFORMER "Владимир Михайлович Зазнобин. Видеоархив"
    INDEX 01 19:34:04
  TRACK 85 AUDIO
    TITLE "00:19:47.41546"
    PERFORMER "Владимир Михайлович Зазнобин. Видеоархив"
    INDEX 01 19:47:31
  TRACK 86 AUDIO
    TITLE "00:20:00.30664"
    PERFORMER "Владимир Михайлович Зазнобин. Видеоархив"
    INDEX 01 20:00:23
  TRACK 87 AUDIO
    TITLE "00:20:14.82556"
    PERFORMER "Владимир Михайлович Зазнобин. Видеоархив"
    INDEX 01 20:14:62
  TRACK 88 AUDIO
    TITLE "00:20:30.03222"
    PERFORMER "Владимир Михайлович Зазнобин. Видеоархив"
    INDEX 01 20:30:02
  TRACK 89 AUDIO
    TITLE "00:20:45.68798"
    PERFORMER "Владимир Михайлович Зазнобин. Видеоархив"
    INDEX 01 20:45:52
  TRACK 90 AUDIO
    TITLE "00:20:59.43272"
    PERFORMER "Владимир Михайлович Зазнобин. Видеоархив"
    INDEX 01 20:59:32
  TRACK 91 AUDIO
    TITLE "00:21:16.48354"
    PERFORMER "Владимир Михайлович Зазнобин. Видеоархив"
    INDEX 01 21:16:36
  TRACK 92 AUDIO
    TITLE "00:21:30.83896"
    PERFORMER "Владимир Михайлович Зазнобин. Видеоархив"
    INDEX 01 21:30:63
  TRACK 93 AUDIO
    TITLE "00:21:44.97474"
    PERFORMER "Владимир Михайлович Зазнобин. Видеоархив"
    INDEX 01 21:44:73
  TRACK 94 AUDIO
    TITLE "00:21:59.29952"
    PERFORMER "Владимир Михайлович Зазнобин. Видеоархив"
    INDEX 01 21:59:22
  TRACK 95 AUDIO
    TITLE "00:22:13.93265"
    PERFORMER "Владимир Михайлович Зазнобин. Видеоархив"
    INDEX 01 22:13:70
  TRACK 96 AUDIO
    TITLE "00:22:30.14755"
    PERFORMER "Владимир Михайлович Зазнобин. Видеоархив"
    INDEX 01 22:30:11
  TRACK 97 AUDIO
    TITLE "00:22:44.92093"
    PERFORMER "Владимир Михайлович Зазнобин. Видеоархив"
    INDEX 01 22:44:69
  TRACK 98 AUDIO
    TITLE "00:22:59.42637"
    PERFORMER "Владимир Михайлович Зазнобин. Видеоархив"
    INDEX 01 22:59:32
  TRACK 99 AUDIO
    TITLE "00:23:16.12376"
    PERFORMER "Владимир Михайлович Зазнобин. Видеоархив"
    INDEX 01 23:16:09
  TRACK 100 AUDIO
    TITLE "00:23:32.20073"
    PERFORMER "Владимир Михайлович Зазнобин. Видеоархив"
    INDEX 01 23:32:15
  TRACK 101 AUDIO
    TITLE "00:23:48.85215"
    PERFORMER "Владимир Михайлович Зазнобин. Видеоархив"
    INDEX 01 23:48:64
  TRACK 102 AUDIO
    TITLE "00:24:01.89565"
    PERFORMER "Владимир Михайлович Зазнобин. Видеоархив"
    INDEX 01 24:01:67
  TRACK 103 AUDIO
    TITLE "00:24:15.97941"
    PERFORMER "Владимир Михайлович Зазнобин. Видеоархив"
    INDEX 01 24:15:73
  TRACK 104 AUDIO
    TITLE "00:24:30.63252"
    PERFORMER "Владимир Михайлович Зазнобин. Видеоархив"
    INDEX 01 24:30:47
  TRACK 105 AUDIO
    TITLE "00:24:44.81519"
    PERFORMER "Владимир Михайлович Зазнобин. Видеоархив"
    INDEX 01 24:44:61
  TRACK 106 AUDIO
    TITLE "00:25:01.32916"
    PERFORMER "Владимир Михайлович Зазнобин. Видеоархив"
    INDEX 01 25:01:25
  TRACK 107 AUDIO
    TITLE "00:25:15.00052"
    PERFORMER "Владимир Михайлович Зазнобин. Видеоархив"
    INDEX 01 25:15:00
  TRACK 108 AUDIO
    TITLE "00:25:28.50889"
    PERFORMER "Владимир Михайлович Зазнобин. Видеоархив"
    INDEX 01 25:28:38
  TRACK 109 AUDIO
    TITLE "00:25:43.17408"
    PERFORMER "Владимир Михайлович Зазнобин. Видеоархив"
    INDEX 01 25:43:13
  TRACK 110 AUDIO
    TITLE "00:25:58.31202"
    PERFORMER "Владимир Михайлович Зазнобин. Видеоархив"
    INDEX 01 25:58:23
  TRACK 111 AUDIO
    TITLE "00:26:11.29331"
    PERFORMER "Владимир Михайлович Зазнобин. Видеоархив"
    INDEX 01 26:11:22
  TRACK 112 AUDIO
    TITLE "00:26:26.79673"
    PERFORMER "Владимир Михайлович Зазнобин. Видеоархив"
    INDEX 01 26:26:60
  TRACK 113 AUDIO
    TITLE "00:26:41.28451"
    PERFORMER "Владимир Михайлович Зазнобин. Видеоархив"
    INDEX 01 26:41:21
  TRACK 114 AUDIO
    TITLE "00:26:54.69955"
    PERFORMER "Владимир Михайлович Зазнобин. Видеоархив"
    INDEX 01 26:54:52
  TRACK 115 AUDIO
    TITLE "00:27:09.32943"
    PERFORMER "Владимир Михайлович Зазнобин. Видеоархив"
    INDEX 01 27:09:25
  TRACK 116 AUDIO
    TITLE "00:27:28.86476"
    PERFORMER "Владимир Михайлович Зазнобин. Видеоархив"
    INDEX 01 27:28:65
  TRACK 117 AUDIO
    TITLE "00:27:42.81385"
    PERFORMER "Владимир Михайлович Зазнобин. Видеоархив"
    INDEX 01 27:42:61
  TRACK 118 AUDIO
    TITLE "00:27:57.38848"
    PERFORMER "Владимир Михайлович Зазнобин. Видеоархив"
    INDEX 01 27:57:29
  TRACK 119 AUDIO
    TITLE "00:28:11.39608"
    PERFORMER "Владимир Михайлович Зазнобин. Видеоархив"
    INDEX 01 28:11:30
  TRACK 120 AUDIO
    TITLE "00:28:24.92628"
    PERFORMER "Владимир Михайлович Зазнобин. Видеоархив"
    INDEX 01 28:24:69
  TRACK 121 AUDIO
    TITLE "00:28:39.40941"
    PERFORMER "Владимир Михайлович Зазнобин. Видеоархив"
    INDEX 01 28:39:31
  TRACK 122 AUDIO
    TITLE "00:28:54.72986"
    PERFORMER "Владимир Михайлович Зазнобин. Видеоархив"
    INDEX 01 28:54:55
  TRACK 123 AUDIO
    TITLE "00:29:08.43608"
    PERFORMER "Владимир Михайлович Зазнобин. Видеоархив"
    INDEX 01 29:08:33
  TRACK 124 AUDIO
    TITLE "00:29:22.31365"
    PERFORMER "Владимир Михайлович Зазнобин. Видеоархив"
    INDEX 01 29:22:24
  TRACK 125 AUDIO
    TITLE "00:29:37.63966"
    PERFORMER "Владимир Михайлович Зазнобин. Видеоархив"
    INDEX 01 29:37:48
  TRACK 126 AUDIO
    TITLE "00:29:54.78660"
    PERFORMER "Владимир Михайлович Зазнобин. Видеоархив"
    INDEX 01 29:54:59
  TRACK 127 AUDIO
    TITLE "00:30:09.91943"
    PERFORMER "Владимир Михайлович Зазнобин. Видеоархив"
    INDEX 01 30:09:69
  TRACK 128 AUDIO
    TITLE "00:30:23.03585"
    PERFORMER "Владимир Михайлович Зазнобин. Видеоархив"
    INDEX 01 30:23:03
  TRACK 129 AUDIO
    TITLE "00:30:37.06435"
    PERFORMER "Владимир Михайлович Зазнобин. Видеоархив"
    INDEX 01 30:37:05
  TRACK 130 AUDIO
    TITLE "00:30:50.28664"
    PERFORMER "Владимир Михайлович Зазнобин. Видеоархив"
    INDEX 01 30:50:21
  TRACK 131 AUDIO
    TITLE "00:31:03.22426"
    PERFORMER "Владимир Михайлович Зазнобин. Видеоархив"
    INDEX 01 31:03:17
  TRACK 132 AUDIO
    TITLE "00:31:17.73295"
    PERFORMER "Владимир Михайлович Зазнобин. Видеоархив"
    INDEX 01 31:17:55
  TRACK 133 AUDIO
    TITLE "00:31:31.10757"
    PERFORMER "Владимир Михайлович Зазнобин. Видеоархив"
    INDEX 01 31:31:08
  TRACK 134 AUDIO
    TITLE "00:31:44.90109"
    PERFORMER "Владимир Михайлович Зазнобин. Видеоархив"
    INDEX 01 31:44:68
  TRACK 135 AUDIO
    TITLE "00:31:57.99336"
    PERFORMER "Владимир Михайлович Зазнобин. Видеоархив"
    INDEX 01 31:58:00
  TRACK 136 AUDIO
    TITLE "00:32:11.22540"
    PERFORMER "Владимир Михайлович Зазнобин. Видеоархив"
    INDEX 01 32:11:17
  TRACK 137 AUDIO
    TITLE "00:32:25.04073"
    PERFORMER "Владимир Михайлович Зазнобин. Видеоархив"
    INDEX 01 32:25:03
  TRACK 138 AUDIO
    TITLE "00:32:42.35347"
    PERFORMER "Владимир Михайлович Зазнобин. Видеоархив"
    INDEX 01 32:42:27
  TRACK 139 AUDIO
    TITLE "00:32:55.99372"
    PERFORMER "Владимир Михайлович Зазнобин. Видеоархив"
    INDEX 01 32:56:00
  TRACK 140 AUDIO
    TITLE "00:33:09.31819"
    PERFORMER "Владимир Михайлович Зазнобин. Видеоархив"
    INDEX 01 33:09:24
  TRACK 141 AUDIO
    TITLE "00:33:22.88599"
    PERFORMER "Владимир Михайлович Зазнобин. Видеоархив"
    INDEX 01 33:22:66
  TRACK 142 AUDIO
    TITLE "00:33:36.37440"
    PERFORMER "Владимир Михайлович Зазнобин. Видеоархив"
    INDEX 01 33:36:28
  TRACK 143 AUDIO
    TITLE "00:33:50.29422"
    PERFORMER "Владимир Михайлович Зазнобин. Видеоархив"
    INDEX 01 33:50:22
  TRACK 144 AUDIO
    TITLE "00:34:07.41562"
    PERFORMER "Владимир Михайлович Зазнобин. Видеоархив"
    INDEX 01 34:07:31
  TRACK 145 AUDIO
    TITLE "00:34:22.73701"
    PERFORMER "Владимир Михайлович Зазнобин. Видеоархив"
    INDEX 01 34:22:55
  TRACK 146 AUDIO
    TITLE "00:34:37.23592"
    PERFORMER "Владимир Михайлович Зазнобин. Видеоархив"
    INDEX 01 34:37:18
  TRACK 147 AUDIO
    TITLE "00:34:50.39043"
    PERFORMER "Владимир Михайлович Зазнобин. Видеоархив"
    INDEX 01 34:50:29
  TRACK 148 AUDIO
    TITLE "00:35:03.67959"
    PERFORMER "Владимир Михайлович Зазнобин. Видеоархив"
    INDEX 01 35:03:51
  TRACK 149 AUDIO
    TITLE "00:35:18.83333"
    PERFORMER "Владимир Михайлович Зазнобин. Видеоархив"
    INDEX 01 35:18:63
  TRACK 150 AUDIO
    TITLE "00:35:32.98769"
    PERFORMER "Владимир Михайлович Зазнобин. Видеоархив"
    INDEX 01 35:32:74
  TRACK 151 AUDIO
    TITLE "00:35:50.98213"
    PERFORMER "Владимир Михайлович Зазнобин. Видеоархив"
    INDEX 01 35:50:74
  TRACK 152 AUDIO
    TITLE "00:36:04.83091"
    PERFORMER "Владимир Михайлович Зазнобин. Видеоархив"
    INDEX 01 36:04:62
  TRACK 153 AUDIO
    TITLE "00:36:22.47290"
    PERFORMER "Владимир Михайлович Зазнобин. Видеоархив"
    INDEX 01 36:22:35
  TRACK 154 AUDIO
    TITLE "00:36:36.49349"
    PERFORMER "Владимир Михайлович Зазнобин. Видеоархив"
    INDEX 01 36:36:37
  TRACK 155 AUDIO
    TITLE "00:36:51.07463"
    PERFORMER "Владимир Михайлович Зазнобин. Видеоархив"
    INDEX 01 36:51:06
  TRACK 156 AUDIO
    TITLE "00:37:04.71766"
    PERFORMER "Владимир Михайлович Зазнобин. Видеоархив"
    INDEX 01 37:04:54
  TRACK 157 AUDIO
    TITLE "00:37:18.56878"
    PERFORMER "Владимир Михайлович Зазнобин. Видеоархив"
    INDEX 01 37:18:43
  TRACK 158 AUDIO
    TITLE "00:37:32.86150"
    PERFORMER "Владимир Михайлович Зазнобин. Видеоархив"
    INDEX 01 37:32:65
  TRACK 159 AUDIO
    TITLE "00:37:48.26277"
    PERFORMER "Владимир Михайлович Зазнобин. Видеоархив"
    INDEX 01 37:48:20
  TRACK 160 AUDIO
    TITLE "00:38:04.48880"
    PERFORMER "Владимир Михайлович Зазнобин. Видеоархив"
    INDEX 01 38:04:37
  TRACK 161 AUDIO
    TITLE "00:38:19.99639"
    PERFORMER "Владимир Михайлович Зазнобин. Видеоархив"
    INDEX 01 38:20:00
  TRACK 162 AUDIO
    TITLE "00:38:33.62179"
    PERFORMER "Владимир Михайлович Зазнобин. Видеоархив"
    INDEX 01 38:33:47
  TRACK 163 AUDIO
    TITLE "00:38:47.02150"
    PERFORMER "Владимир Михайлович Зазнобин. Видеоархив"
    INDEX 01 38:47:02
  TRACK 164 AUDIO
    TITLE "00:39:01.89846"
    PERFORMER "Владимир Михайлович Зазнобин. Видеоархив"
    INDEX 01 39:01:67
  TRACK 165 AUDIO
    TITLE "00:39:18.25172"
    PERFORMER "Владимир Михайлович Зазнобин. Видеоархив"
    INDEX 01 39:18:19
  TRACK 166 AUDIO
    TITLE "00:39:31.80515"
    PERFORMER "Владимир Михайлович Зазнобин. Видеоархив"
    INDEX 01 39:31:60
  TRACK 167 AUDIO
    TITLE "00:39:45.17420"
    PERFORMER "Владимир Михайлович Зазнобин. Видеоархив"
    INDEX 01 39:45:13
  TRACK 168 AUDIO
    TITLE "00:39:58.54277"
    PERFORMER "Владимир Михайлович Зазнобин. Видеоархив"
    INDEX 01 39:58:41
  TRACK 169 AUDIO
    TITLE "00:40:11.63086"
    PERFORMER "Владимир Михайлович Зазнобин. Видеоархив"
    INDEX 01 40:11:47
  TRACK 170 AUDIO
    TITLE "00:40:25.26091"
    PERFORMER "Владимир Михайлович Зазнобин. Видеоархив"
    INDEX 01 40:25:20
  TRACK 171 AUDIO
    TITLE "00:40:38.58769"
    PERFORMER "Владимир Михайлович Зазнобин. Видеоархив"
    INDEX 01 40:38:44
  TRACK 172 AUDIO
    TITLE "00:40:54.29268"
    PERFORMER "Владимир Михайлович Зазнобин. Видеоархив"
    INDEX 01 40:54:22
  TRACK 173 AUDIO
    TITLE "00:41:11.47073"
    PERFORMER "Владимир Михайлович Зазнобин. Видеоархив"
    INDEX 01 41:11:35
  TRACK 174 AUDIO
    TITLE "00:41:26.03884"
    PERFORMER "Владимир Михайлович Зазнобин. Видеоархив"
    INDEX 01 41:26:03
  TRACK 175 AUDIO
    TITLE "00:41:41.87943"
    PERFORMER "Владимир Михайлович Зазнобин. Видеоархив"
    INDEX 01 41:41:66
  TRACK 176 AUDIO
    TITLE "00:41:57.52170"
    PERFORMER "Владимир Михайлович Зазнобин. Видеоархив"
    INDEX 01 41:57:39
  TRACK 177 AUDIO
    TITLE "00:42:10.96832"
    PERFORMER "Владимир Михайлович Зазнобин. Видеоархив"
    INDEX 01 42:10:73
  TRACK 178 AUDIO
    TITLE "00:42:25.21508"
    PERFORMER "Владимир Михайлович Зазнобин. Видеоархив"
    INDEX 01 42:25:16
  TRACK 179 AUDIO
    TITLE "00:42:42.01138"
    PERFORMER "Владимир Михайлович Зазнобин. Видеоархив"
    INDEX 01 42:42:01
  TRACK 180 AUDIO
    TITLE "00:42:55.39159"
    PERFORMER "Владимир Михайлович Зазнобин. Видеоархив"
    INDEX 01 42:55:29
  TRACK 181 AUDIO
    TITLE "00:43:11.08449"
    PERFORMER "Владимир Михайлович Зазнобин. Видеоархив"
    INDEX 01 43:11:06
  TRACK 182 AUDIO
    TITLE "00:43:24.75399"
    PERFORMER "Владимир Михайлович Зазнобин. Видеоархив"
    INDEX 01 43:24:57
  TRACK 183 AUDIO
    TITLE "00:43:39.08481"
    PERFORMER "Владимир Михайлович Зазнобин. Видеоархив"
    INDEX 01 43:39:06
  TRACK 184 AUDIO
    TITLE "00:43:54.30961"
    PERFORMER "Владимир Михайлович Зазнобин. Видеоархив"
    INDEX 01 43:54:23
  TRACK 185 AUDIO
    TITLE "00:44:11.70778"
    PERFORMER "Владимир Михайлович Зазнобин. Видеоархив"
    INDEX 01 44:11:53
  TRACK 186 AUDIO
    TITLE "00:44:25.29277"
    PERFORMER "Владимир Михайлович Зазнобин. Видеоархив"
    INDEX 01 44:25:22
  TRACK 187 AUDIO
    TITLE "00:44:39.46896"
    PERFORMER "Владимир Михайлович Зазнобин. Видеоархив"
    INDEX 01 44:39:35
  TRACK 188 AUDIO
    TITLE "00:44:55.97270"
    PERFORMER "Владимир Михайлович Зазнобин. Видеоархив"
    INDEX 01 44:55:73
  TRACK 189 AUDIO
    TITLE "00:45:10.46791"
    PERFORMER "Владимир Михайлович Зазнобин. Видеоархив"
    INDEX 01 45:10:35
  TRACK 190 AUDIO
    TITLE "00:45:24.46714"
    PERFORMER "Владимир Михайлович Зазнобин. Видеоархив"
    INDEX 01 45:24:35
  TRACK 191 AUDIO
    TITLE "00:45:38.12365"
    PERFORMER "Владимир Михайлович Зазнобин. Видеоархив"
    INDEX 01 45:38:09
  TRACK 192 AUDIO
    TITLE "00:45:53.83698"
    PERFORMER "Владимир Михайлович Зазнобин. Видеоархив"
    INDEX 01 45:53:63
  TRACK 193 AUDIO
    TITLE "00:46:09.75095"
    PERFORMER "Владимир Михайлович Зазнобин. Видеоархив"
    INDEX 01 46:09:56
  TRACK 194 AUDIO
    TITLE "00:46:25.18517"
    PERFORMER "Владимир Михайлович Зазнобин. Видеоархив"
    INDEX 01 46:25:14
  TRACK 195 AUDIO
    TITLE "00:46:39.37018"
    PERFORMER "Владимир Михайлович Зазнобин. Видеоархив"
    INDEX 01 46:39:28
  TRACK 196 AUDIO
    TITLE "00:46:56.10054"
    PERFORMER "Владимир Михайлович Зазнобин. Видеоархив"
    INDEX 01 46:56:08
  TRACK 197 AUDIO
    TITLE "00:47:09.60195"
    PERFORMER "Владимир Михайлович Зазнобин. Видеоархив"
    INDEX 01 47:09:45
  TRACK 198 AUDIO
    TITLE "00:47:24.25320"
    PERFORMER "Владимир Михайлович Зазнобин. Видеоархив"
    INDEX 01 47:24:19
  TRACK 199 AUDIO
    TITLE "00:47:39.31685"
    PERFORMER "Владимир Михайлович Зазнобин. Видеоархив"
    INDEX 01 47:39:24
  TRACK 200 AUDIO
    TITLE "00:47:54.69814"
    PERFORMER "Владимир Михайлович Зазнобин. Видеоархив"
    INDEX 01 47:54:52
  TRACK 201 AUDIO
    TITLE "00:48:11.29522"
    PERFORMER "Владимир Михайлович Зазнобин. Видеоархив"
    INDEX 01 48:11:22
  TRACK 202 AUDIO
    TITLE "00:48:31.16399"
    PERFORMER "Владимир Михайлович Зазнобин. Видеоархив"
    INDEX 01 48:31:12
  TRACK 203 AUDIO
    TITLE "00:48:44.79311"
    PERFORMER "Владимир Михайлович Зазнобин. Видеоархив"
    INDEX 01 48:44:59
  TRACK 204 AUDIO
    TITLE "00:48:58.02703"
    PERFORMER "Владимир Михайлович Зазнобин. Видеоархив"
    INDEX 01 48:58:02
  TRACK 205 AUDIO
    TITLE "00:49:12.20551"
    PERFORMER "Владимир Михайлович Зазнобин. Видеоархив"
    INDEX 01 49:12:15
  TRACK 206 AUDIO
    TITLE "00:49:28.47102"
    PERFORMER "Владимир Михайлович Зазнобин. Видеоархив"
    INDEX 01 49:28:35
  TRACK 207 AUDIO
    TITLE "00:49:43.67630"
    PERFORMER "Владимир Михайлович Зазнобин. Видеоархив"
    INDEX 01 49:43:51
  TRACK 208 AUDIO
    TITLE "00:49:57.33188"
    PERFORMER "Владимир Михайлович Зазнобин. Видеоархив"
    INDEX 01 49:57:25
  TRACK 209 AUDIO
    TITLE "00:50:13.21054"
    PERFORMER "Владимир Михайлович Зазнобин. Видеоархив"
    INDEX 01 50:13:16
  TRACK 210 AUDIO
    TITLE "00:50:27.48379"
    PERFORMER "Владимир Михайлович Зазнобин. Видеоархив"
    INDEX 01 50:27:36
  TRACK 211 AUDIO
    TITLE "00:50:42.70857"
    PERFORMER "Владимир Михайлович Зазнобин. Видеоархив"
    INDEX 01 50:42:53
  TRACK 212 AUDIO
    TITLE "00:50:55.70100"
    PERFORMER "Владимир Михайлович Зазнобин. Видеоархив"
    INDEX 01 50:55:53
  TRACK 213 AUDIO
    TITLE "00:51:10.89791"
    PERFORMER "Владимир Михайлович Зазнобин. Видеоархив"
    INDEX 01 51:10:67
  TRACK 214 AUDIO
    TITLE "00:51:24.66587"
    PERFORMER "Владимир Михайлович Зазнобин. Видеоархив"
    INDEX 01 51:24:50
  TRACK 215 AUDIO
    TITLE "00:51:37.90862"
    PERFORMER "Владимир Михайлович Зазнобин. Видеоархив"
    INDEX 01 51:37:68
  TRACK 216 AUDIO
    TITLE "00:51:50.87270"
    PERFORMER "Владимир Михайлович Зазнобин. Видеоархив"
    INDEX 01 51:50:65
  TRACK 217 AUDIO
    TITLE "00:52:04.48696"
    PERFORMER "Владимир Михайлович Зазнобин. Видеоархив"
    INDEX 01 52:04:37
  TRACK 218 AUDIO
    TITLE "00:52:17.68138"
    PERFORMER "Владимир Михайлович Зазнобин. Видеоархив"
    INDEX 01 52:17:51
  TRACK 219 AUDIO
    TITLE "00:52:32.80680"
    PERFORMER "Владимир Михайлович Зазнобин. Видеоархив"
    INDEX 01 52:32:61
  TRACK 220 AUDIO
    TITLE "00:52:46.37181"
    PERFORMER "Владимир Михайлович Зазнобин. Видеоархив"
    INDEX 01 52:46:28
  TRACK 221 AUDIO
    TITLE "00:53:03.53315"
    PERFORMER "Владимир Михайлович Зазнобин. Видеоархив"
    INDEX 01 53:03:40
  TRACK 222 AUDIO
    TITLE "00:53:23.13769"
    PERFORMER "Владимир Михайлович Зазнобин. Видеоархив"
    INDEX 01 53:23:10
  TRACK 223 AUDIO
    TITLE "00:53:37.78522"
    PERFORMER "Владимир Михайлович Зазнобин. Видеоархив"
    INDEX 01 53:37:59
  TRACK 224 AUDIO
    TITLE "00:53:51.18075"
    PERFORMER "Владимир Михайлович Зазнобин. Видеоархив"
    INDEX 01 53:51:14
  TRACK 225 AUDIO
    TITLE "00:54:04.37054"
    PERFORMER "Владимир Михайлович Зазнобин. Видеоархив"
    INDEX 01 54:04:28
  TRACK 226 AUDIO
    TITLE "00:54:18.35909"
    PERFORMER "Владимир Михайлович Зазнобин. Видеоархив"
    INDEX 01 54:18:27
  TRACK 227 AUDIO
    TITLE "00:54:33.22259"
    PERFORMER "Владимир Михайлович Зазнобин. Видеоархив"
    INDEX 01 54:33:17
  TRACK 228 AUDIO
    TITLE "00:54:47.58868"
    PERFORMER "Владимир Михайлович Зазнобин. Видеоархив"
    INDEX 01 54:47:44
  TRACK 229 AUDIO
    TITLE "00:55:04.76349"
    PERFORMER "Владимир Михайлович Зазнобин. Видеоархив"
    INDEX 01 55:04:57
  TRACK 230 AUDIO
    TITLE "00:55:19.01025"
    PERFORMER "Владимир Михайлович Зазнобин. Видеоархив"
    INDEX 01 55:19:01
  TRACK 231 AUDIO
    TITLE "00:55:34.69805"
    PERFORMER "Владимир Михайлович Зазнобин. Видеоархив"
    INDEX 01 55:34:52
  TRACK 232 AUDIO
    TITLE "00:55:50.33011"
    PERFORMER "Владимир Михайлович Зазнобин. Видеоархив"
    INDEX 01 55:50:25
  TRACK 233 AUDIO
    TITLE "00:56:03.43120"
    PERFORMER "Владимир Михайлович Зазнобин. Видеоархив"
    INDEX 01 56:03:32
  TRACK 234 AUDIO
    TITLE "00:56:19.31590"
    PERFORMER "Владимир Михайлович Зазнобин. Видеоархив"
    INDEX 01 56:19:24
  TRACK 235 AUDIO
    TITLE "00:56:32.79825"
    PERFORMER "Владимир Михайлович Зазнобин. Видеоархив"
    INDEX 01 56:32:60
  TRACK 236 AUDIO
    TITLE "00:56:46.16964"
    PERFORMER "Владимир Михайлович Зазнобин. Видеоархив"
    INDEX 01 56:46:13
  TRACK 237 AUDIO
    TITLE "00:57:02.38778"
    PERFORMER "Владимир Михайлович Зазнобин. Видеоархив"
    INDEX 01 57:02:29
  TRACK 238 AUDIO
    TITLE "00:57:17.30651"
    PERFORMER "Владимир Михайлович Зазнобин. Видеоархив"
    INDEX 01 57:17:23
  TRACK 239 AUDIO
    TITLE "00:57:32.33998"
    PERFORMER "Владимир Михайлович Зазнобин. Видеоархив"
    INDEX 01 57:32:25
  TRACK 240 AUDIO
    TITLE "00:57:45.26181"
    PERFORMER "Владимир Михайлович Зазнобин. Видеоархив"
    INDEX 01 57:45:20
  TRACK 241 AUDIO
    TITLE "00:57:58.54029"
    PERFORMER "Владимир Михайлович Зазнобин. Видеоархив"
    INDEX 01 57:58:41
  TRACK 242 AUDIO
    TITLE "00:58:12.30966"
    PERFORMER "Владимир Михайлович Зазнобин. Видеоархив"
    INDEX 01 58:12:23
  TRACK 243 AUDIO
    TITLE "00:58:25.74000"
    PERFORMER "Владимир Михайлович Зазнобин. Видеоархив"
    INDEX 01 58:25:55
  TRACK 244 AUDIO
    TITLE "00:58:39.48476"
    PERFORMER "Владимир Михайлович Зазнобин. Видеоархив"
    INDEX 01 58:39:36
  TRACK 245 AUDIO
    TITLE "00:58:52.31184"
    PERFORMER "Владимир Михайлович Зазнобин. Видеоархив"
    INDEX 01 58:52:23
  TRACK 246 AUDIO
    TITLE "00:59:05.96603"
    PERFORMER "Владимир Михайлович Зазнобин. Видеоархив"
    INDEX 01 59:05:72
  TRACK 247 AUDIO
    TITLE "00:59:19.80367"
    PERFORMER "Владимир Михайлович Зазнобин. Видеоархив"
    INDEX 01 59:19:60
  TRACK 248 AUDIO
    TITLE "00:59:34.94626"
    PERFORMER "Владимир Михайлович Зазнобин. Видеоархив"
    INDEX 01 59:34:71
  TRACK 249 AUDIO
    TITLE "00:59:49.35694"
    PERFORMER "Владимир Михайлович Зазнобин. Видеоархив"
    INDEX 01 59:49:27
  TRACK 250 AUDIO
    TITLE "01:00:03.46671"
    PERFORMER "Владимир Михайлович Зазнобин. Видеоархив"
    INDEX 01 60:03:35
  TRACK 251 AUDIO
    TITLE "01:00:22.45082"
    PERFORMER "Владимир Михайлович Зазнобин. Видеоархив"
    INDEX 01 60:22:34
  TRACK 252 AUDIO
    TITLE "01:00:35.81893"
    PERFORMER "Владимир Михайлович Зазнобин. Видеоархив"
    INDEX 01 60:35:61
  TRACK 253 AUDIO
    TITLE "01:00:49.22560"
    PERFORMER "Владимир Михайлович Зазнобин. Видеоархив"
    INDEX 01 60:49:17
  TRACK 254 AUDIO
    TITLE "01:01:02.26027"
    PERFORMER "Владимир Михайлович Зазнобин. Видеоархив"
    INDEX 01 61:02:20
  TRACK 255 AUDIO
    TITLE "01:01:16.09141"
    PERFORMER "Владимир Михайлович Зазнобин. Видеоархив"
    INDEX 01 61:16:07
  TRACK 256 AUDIO
    TITLE "01:01:32.05599"
    PERFORMER "Владимир Михайлович Зазнобин. Видеоархив"
    INDEX 01 61:32:04
  TRACK 257 AUDIO
    TITLE "01:01:46.98912"
    PERFORMER "Владимир Михайлович Зазнобин. Видеоархив"
    INDEX 01 61:46:74
  TRACK 258 AUDIO
    TITLE "01:02:01.33574"
    PERFORMER "Владимир Михайлович Зазнобин. Видеоархив"
    INDEX 01 62:01:25
  TRACK 259 AUDIO
    TITLE "01:02:15.49379"
    PERFORMER "Владимир Михайлович Зазнобин. Видеоархив"
    INDEX 01 62:15:37
  TRACK 260 AUDIO
    TITLE "01:02:29.78467"
    PERFORMER "Владимир Михайлович Зазнобин. Видеоархив"
    INDEX 01 62:29:59
  TRACK 261 AUDIO
    TITLE "01:02:45.59553"
    PERFORMER "Владимир Михайлович Зазнобин. Видеоархив"
    INDEX 01 62:45:45
  TRACK 262 AUDIO
    TITLE "01:03:00.10098"
    PERFORMER "Владимир Михайлович Зазнобин. Видеоархив"
    INDEX 01 63:00:08
  TRACK 263 AUDIO
    TITLE "01:03:15.99356"
    PERFORMER "Владимир Михайлович Зазнобин. Видеоархив"
    INDEX 01 63:16:00
  TRACK 264 AUDIO
    TITLE "01:03:32.48383"
    PERFORMER "Владимир Михайлович Зазнобин. Видеоархив"
    INDEX 01 63:32:36
  TRACK 265 AUDIO
    TITLE "01:03:46.66698"
    PERFORMER "Владимир Михайлович Зазнобин. Видеоархив"
    INDEX 01 63:46:50
  TRACK 266 AUDIO
    TITLE "01:03:59.97798"
    PERFORMER "Владимир Михайлович Зазнобин. Видеоархив"
    INDEX 01 63:59:73
  TRACK 267 AUDIO
    TITLE "01:04:16.44921"
    PERFORMER "Владимир Михайлович Зазнобин. Видеоархив"
    INDEX 01 64:16:34
  TRACK 268 AUDIO
    TITLE "01:04:33.22880"
    PERFORMER "Владимир Михайлович Зазнобин. Видеоархив"
    INDEX 01 64:33:17
  TRACK 269 AUDIO
    TITLE "01:04:48.02122"
    PERFORMER "Владимир Михайлович Зазнобин. Видеоархив"
    INDEX 01 64:48:02
  TRACK 270 AUDIO
    TITLE "01:05:02.74866"
    PERFORMER "Владимир Михайлович Зазнобин. Видеоархив"
    INDEX 01 65:02:56
  TRACK 271 AUDIO
    TITLE "01:05:16.80036"
    PERFORMER "Владимир Михайлович Зазнобин. Видеоархив"
    INDEX 01 65:16:60
  TRACK 272 AUDIO
    TITLE "01:05:32.80814"
    PERFORMER "Владимир Михайлович Зазнобин. Видеоархив"
    INDEX 01 65:32:61
  TRACK 273 AUDIO
    TITLE "01:05:48.97751"
    PERFORMER "Владимир Михайлович Зазнобин. Видеоархив"
    INDEX 01 65:48:73
  TRACK 274 AUDIO
    TITLE "01:06:02.77381"
    PERFORMER "Владимир Михайлович Зазнобин. Видеоархив"
    INDEX 01 66:02:58
  TRACK 275 AUDIO
    TITLE "01:06:16.23574"
    PERFORMER "Владимир Михайлович Зазнобин. Видеоархив"
    INDEX 01 66:16:18
  TRACK 276 AUDIO
    TITLE "01:06:31.61145"
    PERFORMER "Владимир Михайлович Зазнобин. Видеоархив"
    INDEX 01 66:31:46
  TRACK 277 AUDIO
    TITLE "01:06:48.19460"
    PERFORMER "Владимир Михайлович Зазнобин. Видеоархив"
    INDEX 01 66:48:15
  TRACK 278 AUDIO
    TITLE "01:07:01.58315"
    PERFORMER "Владимир Михайлович Зазнобин. Видеоархив"
    INDEX 01 67:01:44
  TRACK 279 AUDIO
    TITLE "01:07:14.74415"
    PERFORMER "Владимир Михайлович Зазнобин. Видеоархив"
    INDEX 01 67:14:56
  TRACK 280 AUDIO
    TITLE "01:07:32.30488"
    PERFORMER "Владимир Михайлович Зазнобин. Видеоархив"
    INDEX 01 67:32:23
  TRACK 281 AUDIO
    TITLE "01:07:46.89390"
    PERFORMER "Владимир Михайлович Зазнобин. Видеоархив"
    INDEX 01 67:46:67
  TRACK 282 AUDIO
    TITLE "01:08:04.36172"
    PERFORMER "Владимир Михайлович Зазнобин. Видеоархив"
    INDEX 01 68:04:27
  TRACK 283 AUDIO
    TITLE "01:08:21.94381"
    PERFORMER "Владимир Михайлович Зазнобин. Видеоархив"
    INDEX 01 68:21:71
  TRACK 284 AUDIO
    TITLE "01:08:36.88066"
    PERFORMER "Владимир Михайлович Зазнобин. Видеоархив"
    INDEX 01 68:36:66
  TRACK 285 AUDIO
    TITLE "01:08:52.24989"
    PERFORMER "Владимир Михайлович Зазнобин. Видеоархив"
    INDEX 01 68:52:19
  TRACK 286 AUDIO
    TITLE "01:09:06.22358"
    PERFORMER "Владимир Михайлович Зазнобин. Видеоархив"
    INDEX 01 69:06:17
  TRACK 287 AUDIO
    TITLE "01:09:20.23118"
    PERFORMER "Владимир Михайлович Зазнобин. Видеоархив"
    INDEX 01 69:20:17
  TRACK 288 AUDIO
    TITLE "01:09:35.01338"
    PERFORMER "Владимир Михайлович Зазнобин. Видеоархив"
    INDEX 01 69:35:01
  TRACK 289 AUDIO
    TITLE "01:09:49.32889"
    PERFORMER "Владимир Михайлович Зазнобин. Видеоархив"
    INDEX 01 69:49:25
  TRACK 290 AUDIO
    TITLE "01:10:03.04948"
    PERFORMER "Владимир Михайлович Зазнобин. Видеоархив"
    INDEX 01 70:03:04
  TRACK 291 AUDIO
    TITLE "01:10:18.16746"
    PERFORMER "Владимир Михайлович Зазнобин. Видеоархив"
    INDEX 01 70:18:13
  TRACK 292 AUDIO
    TITLE "01:10:32.14254"
    PERFORMER "Владимир Михайлович Зазнобин. Видеоархив"
    INDEX 01 70:32:11
  TRACK 293 AUDIO
    TITLE "01:10:45.59286"
    PERFORMER "Владимир Михайлович Зазнобин. Видеоархив"
    INDEX 01 70:45:44
  TRACK 294 AUDIO
    TITLE "01:10:58.51701"
    PERFORMER "Владимир Михайлович Зазнобин. Видеоархив"
    INDEX 01 70:58:39
  TRACK 295 AUDIO
    TITLE "01:11:12.91889"
    PERFORMER "Владимир Михайлович Зазнобин. Видеоархив"
    INDEX 01 71:12:69
  TRACK 296 AUDIO
    TITLE "01:11:26.01116"
    PERFORMER "Владимир Михайлович Зазнобин. Видеоархив"
    INDEX 01 71:26:01
  TRACK 297 AUDIO
    TITLE "01:11:39.45961"
    PERFORMER "Владимир Михайлович Зазнобин. Видеоархив"
    INDEX 01 71:39:34
  TRACK 298 AUDIO
    TITLE "01:11:53.33764"
    PERFORMER "Владимир Михайлович Зазнобин. Видеоархив"
    INDEX 01 71:53:25
  TRACK 299 AUDIO
    TITLE "01:12:07.54029"
    PERFORMER "Владимир Михайлович Зазнобин. Видеоархив"
    INDEX 01 72:07:41
  TRACK 300 AUDIO
    TITLE "01:12:26.49050"
    PERFORMER "Владимир Михайлович Зазнобин. Видеоархив"
    INDEX 01 72:26:37
  TRACK 301 AUDIO
    TITLE "01:12:41.51605"
    PERFORMER "Владимир Михайлович Зазнобин. Видеоархив"
    INDEX 01 72:41:39
  TRACK 302 AUDIO
    TITLE "01:12:54.97054"
    PERFORMER "Владимир Михайлович Зазнобин. Видеоархив"
    INDEX 01 72:54:73
  TRACK 303 AUDIO
    TITLE "01:13:10.31190"
    PERFORMER "Владимир Михайлович Зазнобин. Видеоархив"
    INDEX 01 73:10:23
  TRACK 304 AUDIO
    TITLE "01:13:23.20540"
    PERFORMER "Владимир Михайлович Зазнобин. Видеоархив"
    INDEX 01 73:23:15
  TRACK 305 AUDIO
    TITLE "01:13:41.74925"
    PERFORMER "Владимир Михайлович Зазнобин. Видеоархив"
    INDEX 01 73:41:56
  TRACK 306 AUDIO
    TITLE "01:13:56.32526"
    PERFORMER "Владимир Михайлович Зазнобин. Видеоархив"
    INDEX 01 73:56:24
  TRACK 307 AUDIO
    TITLE "01:14:11.03503"
    PERFORMER "Владимир Михайлович Зазнобин. Видеоархив"
    INDEX 01 74:11:03
  TRACK 308 AUDIO
    TITLE "01:14:24.74404"
    PERFORMER "Владимир Михайлович Зазнобин. Видеоархив"
    INDEX 01 74:24:56
  TRACK 309 AUDIO
    TITLE "01:14:39.06649"
    PERFORMER "Владимир Михайлович Зазнобин. Видеоархив"
    INDEX 01 74:39:05
  TRACK 310 AUDIO
    TITLE "01:14:59.17907"
    PERFORMER "Владимир Михайлович Зазнобин. Видеоархив"
    INDEX 01 74:59:13
  TRACK 311 AUDIO
    TITLE "01:15:16.26796"
    PERFORMER "Владимир Михайлович Зазнобин. Видеоархив"
    INDEX 01 75:16:20
  TRACK 312 AUDIO
    TITLE "01:15:30.76735"
    PERFORMER "Владимир Михайлович Зазнобин. Видеоархив"
    INDEX 01 75:30:58
  TRACK 313 AUDIO
    TITLE "01:15:47.66073"
    PERFORMER "Владимир Михайлович Зазнобин. Видеоархив"
    INDEX 01 75:47:50
  TRACK 314 AUDIO
    TITLE "01:16:04.13336"
    PERFORMER "Владимир Михайлович Зазнобин. Видеоархив"
    INDEX 01 76:04:10
  TRACK 315 AUDIO
    TITLE "01:16:18.48091"
    PERFORMER "Владимир Михайлович Зазнобин. Видеоархив"
    INDEX 01 76:18:36
  TRACK 316 AUDIO
    TITLE "01:16:31.61311"
    PERFORMER "Владимир Михайлович Зазнобин. Видеоархив"
    INDEX 01 76:31:46
  TRACK 317 AUDIO
    TITLE "01:16:49.70322"
    PERFORMER "Владимир Михайлович Зазнобин. Видеоархив"
    INDEX 01 76:49:53
  TRACK 318 AUDIO
    TITLE "01:17:03.02816"
    PERFORMER "Владимир Михайлович Зазнобин. Видеоархив"
    INDEX 01 77:03:02
  TRACK 319 AUDIO
    TITLE "01:17:16.27973"
    PERFORMER "Владимир Михайлович Зазнобин. Видеоархив"
    INDEX 01 77:16:21
  TRACK 320 AUDIO
    TITLE "01:17:29.70590"
    PERFORMER "Владимир Михайлович Зазнобин. Видеоархив"
    INDEX 01 77:29:53
  TRACK 321 AUDIO
    TITLE "01:17:42.85156"
    PERFORMER "Владимир Михайлович Зазнобин. Видеоархив"
    INDEX 01 77:42:64
  TRACK 322 AUDIO
    TITLE "01:17:57.08717"
    PERFORMER "Владимир Михайлович Зазнобин. Видеоархив"
    INDEX 01 77:57:07
  TRACK 323 AUDIO
    TITLE "01:18:10.56256"
    PERFORMER "Владимир Михайлович Зазнобин. Видеоархив"
    INDEX 01 78:10:42
  TRACK 324 AUDIO
    TITLE "01:18:24.26320"
    PERFORMER "Владимир Михайлович Зазнобин. Видеоархив"
    INDEX 01 78:24:20
  TRACK 325 AUDIO
    TITLE "01:18:41.43986"
    PERFORMER "Владимир Михайлович Зазнобин. Видеоархив"
    INDEX 01 78:41:33
  TRACK 326 AUDIO
    TITLE "01:18:54.25349"
    PERFORMER "Владимир Михайлович Зазнобин. Видеоархив"
    INDEX 01 78:54:19
  TRACK 327 AUDIO
    TITLE "01:19:08.38973"
    PERFORMER "Владимир Михайлович Зазнобин. Видеоархив"
    INDEX 01 79:08:29
  TRACK 328 AUDIO
    TITLE "01:19:22.50830"
    PERFORMER "Владимир Михайлович Зазнобин. Видеоархив"
    INDEX 01 79:22:38
  TRACK 329 AUDIO
    TITLE "01:19:36.35290"
    PERFORMER "Владимир Михайлович Зазнобин. Видеоархив"
    INDEX 01 79:36:26
  TRACK 330 AUDIO
    TITLE "01:19:52.40664"
    PERFORMER "Владимир Михайлович Зазнобин. Видеоархив"
    INDEX 01 79:52:30
  TRACK 331 AUDIO
    TITLE "01:20:05.84580"
    PERFORMER "Владимир Михайлович Зазнобин. Видеоархив"
    INDEX 01 80:05:63
  TRACK 332 AUDIO
    TITLE "01:20:20.95311"
    PERFORMER "Владимир Михайлович Зазнобин. Видеоархив"
    INDEX 01 80:20:71
  TRACK 333 AUDIO
    TITLE "01:20:33.84848"
    PERFORMER "Владимир Михайлович Зазнобин. Видеоархив"
    INDEX 01 80:33:64
  TRACK 334 AUDIO
    TITLE "01:20:47.35265"
    PERFORMER "Владимир Михайлович Зазнобин. Видеоархив"
    INDEX 01 80:47:26
  TRACK 335 AUDIO
    TITLE "01:21:05.38798"
    PERFORMER "Владимир Михайлович Зазнобин. Видеоархив"
    INDEX 01 81:05:29
  TRACK 336 AUDIO
    TITLE "01:21:21.12501"
    PERFORMER "Владимир Михайлович Зазнобин. Видеоархив"
    INDEX 01 81:21:09
  TRACK 337 AUDIO
    TITLE "01:21:35.18370"
    PERFORMER "Владимир Михайлович Зазнобин. Видеоархив"
    INDEX 01 81:35:14
  TRACK 338 AUDIO
    TITLE "01:21:48.62100"
    PERFORMER "Владимир Михайлович Зазнобин. Видеоархив"
    INDEX 01 81:48:47
  TRACK 339 AUDIO
    TITLE "01:22:02.51390"
    PERFORMER "Владимир Михайлович Зазнобин. Видеоархив"
    INDEX 01 82:02:39
  TRACK 340 AUDIO
    TITLE "01:22:17.85571"
    PERFORMER "Владимир Михайлович Зазнобин. Видеоархив"
    INDEX 01 82:17:64
  TRACK 341 AUDIO
    TITLE "01:22:32.11828"
    PERFORMER "Владимир Михайлович Зазнобин. Видеоархив"
    INDEX 01 82:32:09
  TRACK 342 AUDIO
    TITLE "01:22:48.02340"
    PERFORMER "Владимир Михайлович Зазнобин. Видеоархив"
    INDEX 01 82:48:02
  TRACK 343 AUDIO
    TITLE "01:23:03.26490"
    PERFORMER "Владимир Михайлович Зазнобин. Видеоархив"
    INDEX 01 83:03:20
  TRACK 344 AUDIO
    TITLE "01:23:16.79556"
    PERFORMER "Владимир Михайлович Зазнобин. Видеоархив"
    INDEX 01 83:16:60
  TRACK 345 AUDIO
    TITLE "01:23:30.27932"
    PERFORMER "Владимир Михайлович Зазнобин. Видеоархив"
    INDEX 01 83:30:21
  TRACK 346 AUDIO
    TITLE "01:23:44.92268"
    PERFORMER "Владимир Михайлович Зазнобин. Видеоархив"
    INDEX 01 83:44:69
  TRACK 347 AUDIO
    TITLE "01:23:58.89868"
    PERFORMER "Владимир Михайлович Зазнобин. Видеоархив"
    INDEX 01 83:58:67
  TRACK 348 AUDIO
    TITLE "01:24:12.45351"
    PERFORMER "Владимир Михайлович Зазнобин. Видеоархив"
    INDEX 01 84:12:34
  TRACK 349 AUDIO
    TITLE "01:24:28.15431"
    PERFORMER "Владимир Михайлович Зазнобин. Видеоархив"
    INDEX 01 84:28:12
  TRACK 350 AUDIO
    TITLE "01:24:48.11363"
    PERFORMER "Владимир Михайлович Зазнобин. Видеоархив"
    INDEX 01 84:48:09
  TRACK 351 AUDIO
    TITLE "01:25:02.54011"
    PERFORMER "Владимир Михайлович Зазнобин. Видеоархив"
    INDEX 01 85:02:41
  TRACK 352 AUDIO
    TITLE "01:25:16.22125"
    PERFORMER "Владимир Михайлович Зазнобин. Видеоархив"
    INDEX 01 85:16:17
  TRACK 353 AUDIO
    TITLE "01:25:29.89959"
    PERFORMER "Владимир Михайлович Зазнобин. Видеоархив"
    INDEX 01 85:29:67
  TRACK 354 AUDIO
    TITLE "01:25:43.73304"
    PERFORMER "Владимир Михайлович Зазнобин. Видеоархив"
    INDEX 01 85:43:55
  TRACK 355 AUDIO
    TITLE "01:25:58.65270"
    PERFORMER "Владимир Михайлович Зазнобин. Видеоархив"
    INDEX 01 85:58:49
  TRACK 356 AUDIO
    TITLE "01:26:13.11773"
    PERFORMER "Владимир Михайлович Зазнобин. Видеоархив"
    INDEX 01 86:13:09
  TRACK 357 AUDIO
    TITLE "01:26:28.61605"
    PERFORMER "Владимир Михайлович Зазнобин. Видеоархив"
    INDEX 01 86:28:46
  TRACK 358 AUDIO
    TITLE "01:26:42.41422"
    PERFORMER "Владимир Михайлович Зазнобин. Видеоархив"
    INDEX 01 86:42:31
  TRACK 359 AUDIO
    TITLE "01:26:56.07025"
    PERFORMER "Владимир Михайлович Зазнобин. Видеоархив"
    INDEX 01 86:56:05
  TRACK 360 AUDIO
    TITLE "01:27:10.07832"
    PERFORMER "Владимир Михайлович Зазнобин. Видеоархив"
    INDEX 01 87:10:06
  TRACK 361 AUDIO
    TITLE "01:27:23.98005"
    PERFORMER "Владимир Михайлович Зазнобин. Видеоархив"
    INDEX 01 87:23:74
  TRACK 362 AUDIO
    TITLE "01:27:37.77354"
    PERFORMER "Владимир Михайлович Зазнобин. Видеоархив"
    INDEX 01 87:37:58
  TRACK 363 AUDIO
    TITLE "01:27:52.23485"
    PERFORMER "Владимир Михайлович Зазнобин. Видеоархив"
    INDEX 01 87:52:18
  TRACK 364 AUDIO
    TITLE "01:28:05.69447"
    PERFORMER "Владимир Михайлович Зазнобин. Видеоархив"
    INDEX 01 88:05:52
  TRACK 365 AUDIO
    TITLE "01:28:19.05887"
    PERFORMER "Владимир Михайлович Зазнобин. Видеоархив"
    INDEX 01 88:19:04
  TRACK 366 AUDIO
    TITLE "01:28:32.66893"
    PERFORMER "Владимир Михайлович Зазнобин. Видеоархив"
    INDEX 01 88:32:50
  TRACK 367 AUDIO
    TITLE "01:28:50.45628"
    PERFORMER "Владимир Михайлович Зазнобин. Видеоархив"
    INDEX 01 88:50:34
  TRACK 368 AUDIO
    TITLE "01:29:04.19639"
    PERFORMER "Владимир Михайлович Зазнобин. Видеоархив"
    INDEX 01 89:04:15
  TRACK 369 AUDIO
    TITLE "01:29:17.93882"
    PERFORMER "Владимир Михайлович Зазнобин. Видеоархив"
    INDEX 01 89:17:70
  TRACK 370 AUDIO
    TITLE "01:29:32.19533"
    PERFORMER "Владимир Михайлович Зазнобин. Видеоархив"
    INDEX 01 89:32:15
  TRACK 371 AUDIO
    TITLE "01:29:48.43900"
    PERFORMER "Владимир Михайлович Зазнобин. Видеоархив"
    INDEX 01 89:48:33
  TRACK 372 AUDIO
    TITLE "01:30:02.34444"
    PERFORMER "Владимир Михайлович Зазнобин. Видеоархив"
    INDEX 01 90:02:26
  TRACK 373 AUDIO
    TITLE "01:30:16.69336"
    PERFORMER "Владимир Михайлович Зазнобин. Видеоархив"
    INDEX 01 90:16:52
  TRACK 374 AUDIO
    TITLE "01:30:30.64617"
    PERFORMER "Владимир Михайлович Зазнобин. Видеоархив"
    INDEX 01 90:30:48
  TRACK 375 AUDIO
    TITLE "01:30:51.96247"
    PERFORMER "Владимир Михайлович Зазнобин. Видеоархив"
    INDEX 01 90:51:72
  TRACK 376 AUDIO
    TITLE "01:31:08.38170"
    PERFORMER "Владимир Михайлович Зазнобин. Видеоархив"
    INDEX 01 91:08:29
  TRACK 377 AUDIO
    TITLE "01:31:23.56098"
    PERFORMER "Владимир Михайлович Зазнобин. Видеоархив"
    INDEX 01 91:23:42
  TRACK 378 AUDIO
    TITLE "01:31:36.47862"
    PERFORMER "Владимир Михайлович Зазнобин. Видеоархив"
    INDEX 01 91:36:36
  TRACK 379 AUDIO
    TITLE "01:31:51.15311"
    PERFORMER "Владимир Михайлович Зазнобин. Видеоархив"
    INDEX 01 91:51:11
  TRACK 380 AUDIO
    TITLE "01:32:06.37696"
    PERFORMER "Владимир Михайлович Зазнобин. Видеоархив"
    INDEX 01 92:06:28
  TRACK 381 AUDIO
    TITLE "01:32:20.12170"
    PERFORMER "Владимир Михайлович Зазнобин. Видеоархив"
    INDEX 01 92:20:09
  TRACK 382 AUDIO
    TITLE "01:32:36.51075"
    PERFORMER "Владимир Михайлович Зазнобин. Видеоархив"
    INDEX 01 92:36:38
  TRACK 383 AUDIO
    TITLE "01:32:51.64497"
    PERFORMER "Владимир Михайлович Зазнобин. Видеоархив"
    INDEX 01 92:51:48
  TRACK 384 AUDIO
    TITLE "01:33:07.23245"
    PERFORMER "Владимир Михайлович Зазнобин. Видеоархив"
    INDEX 01 93:07:17
  TRACK 385 AUDIO
    TITLE "01:33:24.81127"
    PERFORMER "Владимир Михайлович Зазнобин. Видеоархив"
    INDEX 01 93:24:61
  TRACK 386 AUDIO
    TITLE "01:33:37.95417"
    PERFORMER "Владимир Михайлович Зазнобин. Видеоархив"
    INDEX 01 93:37:72
  TRACK 387 AUDIO
    TITLE "01:33:51.33855"
    PERFORMER "Владимир Михайлович Зазнобин. Видеоархив"
    INDEX 01 93:51:25
  TRACK 388 AUDIO
    TITLE "01:34:04.46658"
    PERFORMER "Владимир Михайлович Зазнобин. Видеоархив"
    INDEX 01 94:04:35
  TRACK 389 AUDIO
    TITLE "01:34:17.37306"
    PERFORMER "Владимир Михайлович Зазнобин. Видеоархив"
    INDEX 01 94:17:28
  TRACK 390 AUDIO
    TITLE "01:34:30.47231"
    PERFORMER "Владимир Михайлович Зазнобин. Видеоархив"
    INDEX 01 94:30:35
  TRACK 391 AUDIO
    TITLE "01:34:43.29476"
    PERFORMER "Владимир Михайлович Зазнобин. Видеоархив"
    INDEX 01 94:43:22
  TRACK 392 AUDIO
    TITLE "01:34:57.32045"
    PERFORMER "Владимир Михайлович Зазнобин. Видеоархив"
    INDEX 01 94:57:24
  TRACK 393 AUDIO
    TITLE "01:35:13.90594"
    PERFORMER "Владимир Михайлович Зазнобин. Видеоархив"
    INDEX 01 95:13:68
  TRACK 394 AUDIO
    TITLE "01:35:27.99481"
    PERFORMER "Владимир Михайлович Зазнобин. Видеоархив"
    INDEX 01 95:28:00
  TRACK 395 AUDIO
    TITLE "01:35:41.08707"
    PERFORMER "Владимир Михайлович Зазнобин. Видеоархив"
    INDEX 01 95:41:07
  TRACK 396 AUDIO
    TITLE "01:35:56.29701"
    PERFORMER "Владимир Михайлович Зазнобин. Видеоархив"
    INDEX 01 95:56:22
  TRACK 397 AUDIO
    TITLE "01:36:10.22658"
    PERFORMER "Владимир Михайлович Зазнобин. Видеоархив"
    INDEX 01 96:10:17
  TRACK 398 AUDIO
    TITLE "01:36:23.72567"
    PERFORMER "Владимир Михайлович Зазнобин. Видеоархив"
    INDEX 01 96:23:54
  TRACK 399 AUDIO
    TITLE "01:36:37.00415"
    PERFORMER "Владимир Михайлович Зазнобин. Видеоархив"
    INDEX 01 96:37:00
  TRACK 400 AUDIO
    TITLE "01:36:51.60107"
    PERFORMER "Владимир Михайлович Зазнобин. Видеоархив"
    INDEX 01 96:51:45
  TRACK 401 AUDIO
    TITLE "01:37:06.75388"
    PERFORMER "Владимир Михайлович Зазнобин. Видеоархив"
    INDEX 01 97:06:57
  TRACK 402 AUDIO
    TITLE "01:37:20.19351"
    PERFORMER "Владимир Михайлович Зазнобин. Видеоархив"
    INDEX 01 97:20:15
  TRACK 403 AUDIO
    TITLE "01:37:34.43610"
    PERFORMER "Владимир Михайлович Зазнобин. Видеоархив"
    INDEX 01 97:34:33
  TRACK 404 AUDIO
    TITLE "01:37:49.12311"
    PERFORMER "Владимир Михайлович Зазнобин. Видеоархив"
    INDEX 01 97:49:09
  TRACK 405 AUDIO
    TITLE "01:38:05.09696"
    PERFORMER "Владимир Михайлович Зазнобин. Видеоархив"
    INDEX 01 98:05:07
  TRACK 406 AUDIO
    TITLE "01:38:19.78120"
    PERFORMER "Владимир Михайлович Зазнобин. Видеоархив"
    INDEX 01 98:19:59
  TRACK 407 AUDIO
    TITLE "01:38:41.00324"
    PERFORMER "Владимир Михайлович Зазнобин. Видеоархив"
    INDEX 01 98:41:00
  TRACK 408 AUDIO
    TITLE "01:38:54.94490"
    PERFORMER "Владимир Михайлович Зазнобин. Видеоархив"
    INDEX 01 98:54:71
  TRACK 409 AUDIO
    TITLE "01:39:08.10542"
    PERFORMER "Владимир Михайлович Зазнобин. Видеоархив"
    INDEX 01 99:08:08
  TRACK 410 AUDIO
    TITLE "01:39:21.93887"
    PERFORMER "Владимир Михайлович Зазнобин. Видеоархив"
    INDEX 01 99:21:70
  TRACK 411 AUDIO
    TITLE "01:39:35.29444"
    PERFORMER "Владимир Михайлович Зазнобин. Видеоархив"
    INDEX 01 99:35:22
  TRACK 412 AUDIO
    TITLE "01:39:51.41646"
    PERFORMER "Владимир Михайлович Зазнобин. Видеоархив"
    INDEX 01 99:51:31
  TRACK 413 AUDIO
    TITLE "01:40:06.13227"
    PERFORMER "Владимир Михайлович Зазнобин. Видеоархив"
    INDEX 01 100:06:10
  TRACK 414 AUDIO
    TITLE "01:40:24.14995"
    PERFORMER "Владимир Михайлович Зазнобин. Видеоархив"
    INDEX 01 100:24:11
  TRACK 415 AUDIO
    TITLE "01:40:39.09748"
    PERFORMER "Владимир Михайлович Зазнобин. Видеоархив"
    INDEX 01 100:39:07
  TRACK 416 AUDIO
    TITLE "01:40:52.59889"
    PERFORMER "Владимир Михайлович Зазнобин. Видеоархив"
    INDEX 01 100:52:45
  TRACK 417 AUDIO
    TITLE "01:41:05.72878"
    PERFORMER "Владимир Михайлович Зазнобин. Видеоархив"
    INDEX 01 101:05:55
  TRACK 418 AUDIO
    TITLE "01:41:21.84381"
    PERFORMER "Владимир Михайлович Зазнобин. Видеоархив"
    INDEX 01 101:21:63
  TRACK 419 AUDIO
    TITLE "01:41:41.41955"
    PERFORMER "Владимир Михайлович Зазнобин. Видеоархив"
    INDEX 01 101:41:31
  TRACK 420 AUDIO
    TITLE "01:41:57.72499"
    PERFORMER "Владимир Михайлович Зазнобин. Видеоархив"
    INDEX 01 101:57:54
  TRACK 421 AUDIO
    TITLE "01:42:12.17469"
    PERFORMER "Владимир Михайлович Зазнобин. Видеоархив"
    INDEX 01 102:12:13
  TRACK 422 AUDIO
    TITLE "01:42:26.17161"
    PERFORMER "Владимир Михайлович Зазнобин. Видеоархив"
    INDEX 01 102:26:13
  TRACK 423 AUDIO
    TITLE "01:42:40.85213"
    PERFORMER "Владимир Михайлович Зазнобин. Видеоархив"
    INDEX 01 102:40:64
  TRACK 424 AUDIO
    TITLE "01:42:54.89039"
    PERFORMER "Владимир Михайлович Зазнобин. Видеоархив"
    INDEX 01 102:54:67
  TRACK 425 AUDIO
    TITLE "01:43:10.67197"
    PERFORMER "Владимир Михайлович Зазнобин. Видеоархив"
    INDEX 01 103:10:50
  TRACK 426 AUDIO
    TITLE "01:43:23.85063"
    PERFORMER "Владимир Михайлович Зазнобин. Видеоархив"
    INDEX 01 103:23:64
  TRACK 427 AUDIO
    TITLE "01:43:36.82354"
    PERFORMER "Владимир Михайлович Зазнобин. Видеоархив"
    INDEX 01 103:36:62
  TRACK 428 AUDIO
    TITLE "01:43:52.85592"
    PERFORMER "Владимир Михайлович Зазнобин. Видеоархив"
    INDEX 01 103:52:64
  TRACK 429 AUDIO
    TITLE "01:44:06.08889"
    PERFORMER "Владимир Михайлович Зазнобин. Видеоархив"
    INDEX 01 104:06:07
  TRACK 430 AUDIO
    TITLE "01:44:20.50469"
    PERFORMER "Владимир Михайлович Зазнобин. Видеоархив"
    INDEX 01 104:20:38
  TRACK 431 AUDIO
    TITLE "01:44:33.93458"
    PERFORMER "Владимир Михайлович Зазнобин. Видеоархив"
    INDEX 01 104:33:70
  TRACK 432 AUDIO
    TITLE "01:44:46.70410"
    PERFORMER "Владимир Михайлович Зазнобин. Видеоархив"
    INDEX 01 104:46:53
  TRACK 433 AUDIO
    TITLE "01:45:00.38755"
    PERFORMER "Владимир Михайлович Зазнобин. Видеоархив"
    INDEX 01 105:00:29
  TRACK 434 AUDIO
    TITLE "01:45:14.03011"
    PERFORMER "Владимир Михайлович Зазнобин. Видеоархив"
    INDEX 01 105:14:02
  TRACK 435 AUDIO
    TITLE "01:45:27.27982"
    PERFORMER "Владимир Михайлович Зазнобин. Видеоархив"
    INDEX 01 105:27:21
  TRACK 436 AUDIO
    TITLE "01:45:41.55537"
    PERFORMER "Владимир Михайлович Зазнобин. Видеоархив"
    INDEX 01 105:41:42
  TRACK 437 AUDIO
    TITLE "01:45:57.81438"
    PERFORMER "Владимир Михайлович Зазнобин. Видеоархив"
    INDEX 01 105:57:61
  TRACK 438 AUDIO
    TITLE "01:46:11.09474"
    PERFORMER "Владимир Михайлович Зазнобин. Видеоархив"
    INDEX 01 106:11:07
  TRACK 439 AUDIO
    TITLE "01:46:24.48794"
    PERFORMER "Владимир Михайлович Зазнобин. Видеоархив"
    INDEX 01 106:24:37
  TRACK 440 AUDIO
    TITLE "01:46:37.91689"
    PERFORMER "Владимир Михайлович Зазнобин. Видеоархив"
    INDEX 01 106:37:69
  TRACK 441 AUDIO
    TITLE "01:46:53.46490"
    PERFORMER "Владимир Михайлович Зазнобин. Видеоархив"
    INDEX 01 106:53:35
  TRACK 442 AUDIO
    TITLE "01:47:07.54726"
    PERFORMER "Владимир Михайлович Зазнобин. Видеоархив"
    INDEX 01 107:07:41
  TRACK 443 AUDIO
    TITLE "01:47:21.33381"
    PERFORMER "Владимир Михайлович Зазнобин. Видеоархив"
    INDEX 01 107:21:25
  TRACK 444 AUDIO
    TITLE "01:47:35.51229"
    PERFORMER "Владимир Михайлович Зазнобин. Видеоархив"
    INDEX 01 107:35:38
  TRACK 445 AUDIO
    TITLE "01:47:51.51635"
    PERFORMER "Владимир Михайлович Зазнобин. Видеоархив"
    INDEX 01 107:51:39
  TRACK 446 AUDIO
    TITLE "01:48:05.84810"
    PERFORMER "Владимир Михайлович Зазнобин. Видеоархив"
    INDEX 01 108:05:64
  TRACK 447 AUDIO
    TITLE "01:48:19.00862"
    PERFORMER "Владимир Михайлович Зазнобин. Видеоархив"
    INDEX 01 108:19:01
  TRACK 448 AUDIO
    TITLE "01:48:31.84454"
    PERFORMER "Владимир Михайлович Зазнобин. Видеоархив"
    INDEX 01 108:31:63
  TRACK 449 AUDIO
    TITLE "01:48:44.60524"
    PERFORMER "Владимир Михайлович Зазнобин. Видеоархив"
    INDEX 01 108:44:45
  TRACK 450 AUDIO
    TITLE "01:48:57.61159"
    PERFORMER "Владимир Михайлович Зазнобин. Видеоархив"
    INDEX 01 108:57:46
  TRACK 451 AUDIO
    TITLE "01:49:14.01363"
    PERFORMER "Владимир Михайлович Зазнобин. Видеоархив"
    INDEX 01 109:14:01
  TRACK 452 AUDIO
    TITLE "01:49:27.75698"
    PERFORMER "Владимир Михайлович Зазнобин. Видеоархив"
    INDEX 01 109:27:57
  TRACK 453 AUDIO
    TITLE "01:49:42.72914"
    PERFORMER "Владимир Михайлович Зазнобин. Видеоархив"
    INDEX 01 109:42:55
  TRACK 454 AUDIO
    TITLE "01:49:56.26211"
    PERFORMER "Владимир Михайлович Зазнобин. Видеоархив"
    INDEX 01 109:56:20
  TRACK 455 AUDIO
    TITLE "01:50:10.43179"
    PERFORMER "Владимир Михайлович Зазнобин. Видеоархив"
    INDEX 01 110:10:32
  TRACK 456 AUDIO
    TITLE "01:50:24.48163"
    PERFORMER "Владимир Михайлович Зазнобин. Видеоархив"
    INDEX 01 110:24:36
  TRACK 457 AUDIO
    TITLE "01:50:38.03367"
    PERFORMER "Владимир Михайлович Зазнобин. Видеоархив"
    INDEX 01 110:38:03
  TRACK 458 AUDIO
    TITLE "01:50:53.80041"
    PERFORMER "Владимир Михайлович Зазнобин. Видеоархив"
    INDEX 01 110:53:60
  TRACK 459 AUDIO
    TITLE "01:51:08.92256"
    PERFORMER "Владимир Михайлович Зазнобин. Видеоархив"
    INDEX 01 111:08:69
  TRACK 460 AUDIO
    TITLE "01:51:24.27320"
    PERFORMER "Владимир Михайлович Зазнобин. Видеоархив"
    INDEX 01 111:24:20
  TRACK 461 AUDIO
    TITLE "01:51:39.98374"
    PERFORMER "Владимир Михайлович Зазнобин. Видеоархив"
    INDEX 01 111:39:74
  TRACK 462 AUDIO
    TITLE "01:51:53.12431"
    PERFORMER "Владимир Михайлович Зазнобин. Видеоархив"
    INDEX 01 111:53:09
  TRACK 463 AUDIO
    TITLE "01:52:06.44460"
    PERFORMER "Владимир Михайлович Зазнобин. Видеоархив"
    INDEX 01 112:06:33
  TRACK 464 AUDIO
    TITLE "01:52:23.01522"
    PERFORMER "Владимир Михайлович Зазнобин. Видеоархив"
    INDEX 01 112:23:01
  TRACK 465 AUDIO
    TITLE "01:52:37.42172"
    PERFORMER "Владимир Михайлович Зазнобин. Видеоархив"
    INDEX 01 112:37:32
  TRACK 466 AUDIO
    TITLE "01:52:59.22147"
    PERFORMER "Владимир Михайлович Зазнобин. Видеоархив"
    INDEX 01 112:59:17
  TRACK 467 AUDIO
    TITLE "01:53:13.83884"
    PERFORMER "Владимир Михайлович Зазнобин. Видеоархив"
    INDEX 01 113:13:63
  TRACK 468 AUDIO
    TITLE "01:53:27.54596"
    PERFORMER "Владимир Михайлович Зазнобин. Видеоархив"
    INDEX 01 113:27:41
  TRACK 469 AUDIO
    TITLE "01:53:44.81086"
    PERFORMER "Владимир Михайлович Зазнобин. Видеоархив"
    INDEX 01 113:44:61
  TRACK 470 AUDIO
    TITLE "01:54:02.62698"
    PERFORMER "Владимир Михайлович Зазнобин. Видеоархив"
    INDEX 01 114:02:47
  TRACK 471 AUDIO
    TITLE "01:54:17.59961"
    PERFORMER "Владимир Михайлович Зазнобин. Видеоархив"
    INDEX 01 114:17:45
  TRACK 472 AUDIO
    TITLE "01:54:30.66773"
    PERFORMER "Владимир Михайлович Зазнобин. Видеоархив"
    INDEX 01 114:30:50
  TRACK 473 AUDIO
    TITLE "01:54:44.58059"
    PERFORMER "Владимир Михайлович Зазнобин. Видеоархив"
    INDEX 01 114:44:44
  TRACK 474 AUDIO
    TITLE "01:54:59.64655"
    PERFORMER "Владимир Михайлович Зазнобин. Видеоархив"
    INDEX 01 114:59:48
  TRACK 475 AUDIO
    TITLE "01:55:14.81098"
    PERFORMER "Владимир Михайлович Зазнобин. Видеоархив"
    INDEX 01 115:14:61
  TRACK 476 AUDIO
    TITLE "01:55:28.43544"
    PERFORMER "Владимир Михайлович Зазнобин. Видеоархив"
    INDEX 01 115:28:33
  TRACK 477 AUDIO
    TITLE "01:55:44.78546"
    PERFORMER "Владимир Михайлович Зазнобин. Видеоархив"
    INDEX 01 115:44:59
  TRACK 478 AUDIO
    TITLE "01:55:59.76227"
    PERFORMER "Владимир Михайлович Зазнобин. Видеоархив"
    INDEX 01 115:59:57
  TRACK 479 AUDIO
    TITLE "01:56:16.64401"
    PERFORMER "Владимир Михайлович Зазнобин. Видеоархив"
    INDEX 01 116:16:48
  TRACK 480 AUDIO
    TITLE "01:56:31.96029"
    PERFORMER "Владимир Михайлович Зазнобин. Видеоархив"
    INDEX 01 116:31:72
  TRACK 481 AUDIO
    TITLE "01:56:45.23136"
    PERFORMER "Владимир Михайлович Зазнобин. Видеоархив"
    INDEX 01 116:45:17
  TRACK 482 AUDIO
    TITLE "01:56:58.18662"
    PERFORMER "Владимир Михайлович Зазнобин. Видеоархив"
    INDEX 01 116:58:14
  TRACK 483 AUDIO
    TITLE "01:57:11.49159"
    PERFORMER "Владимир Михайлович Зазнобин. Видеоархив"
    INDEX 01 117:11:37
  TRACK 484 AUDIO
    TITLE "01:57:28.00694"
    PERFORMER "Владимир Михайлович Зазнобин. Видеоархив"
    INDEX 01 117:28:01
  TRACK 485 AUDIO
    TITLE "01:57:42.09488"
    PERFORMER "Владимир Михайлович Зазнобин. Видеоархив"
    INDEX 01 117:42:07
  TRACK 486 AUDIO
    TITLE "01:57:55.91950"
    PERFORMER "Владимир Михайлович Зазнобин. Видеоархив"
    INDEX 01 117:55:69
  TRACK 487 AUDIO
    TITLE "01:58:10.57726"
    PERFORMER "Владимир Михайлович Зазнобин. Видеоархив"
    INDEX 01 118:10:43
  TRACK 488 AUDIO
    TITLE "01:58:26.87249"
    PERFORMER "Владимир Михайлович Зазнобин. Видеоархив"
    INDEX 01 118:26:65
  TRACK 489 AUDIO
    TITLE "01:58:41.59433"
    PERFORMER "Владимир Михайлович Зазнобин. Видеоархив"
    INDEX 01 118:41:45
  TRACK 490 AUDIO
    TITLE "01:58:55.95812"
    PERFORMER "Владимир Михайлович Зазнобин. Видеоархив"
    INDEX 01 118:55:72
  TRACK 491 AUDIO
    TITLE "01:59:09.61045"
    PERFORMER "Владимир Михайлович Зазнобин. Видеоархив"
    INDEX 01 119:09:46
  TRACK 492 AUDIO
    TITLE "01:59:23.55397"
    PERFORMER "Владимир Михайлович Зазнобин. Видеоархив"
    INDEX 01 119:23:42
  TRACK 493 AUDIO
    TITLE "01:59:37.95120"
    PERFORMER "Владимир Михайлович Зазнобин. Видеоархив"
    INDEX 01 119:37:71
  TRACK 494 AUDIO
    TITLE "01:59:53.03202"
    PERFORMER "Владимир Михайлович Зазнобин. Видеоархив"
    INDEX 01 119:53:02
  TRACK 495 AUDIO
    TITLE "02:00:07.07769"
    PERFORMER "Владимир Михайлович Зазнобин. Видеоархив"
    INDEX 01 120:07:06
  TRACK 496 AUDIO
    TITLE "02:00:23.67943"
    PERFORMER "Владимир Михайлович Зазнобин. Видеоархив"
    INDEX 01 120:23:51
  TRACK 497 AUDIO
    TITLE "02:00:36.76937"
    PERFORMER "Владимир Михайлович Зазнобин. Видеоархив"
    INDEX 01 120:36:58
  TRACK 498 AUDIO
    TITLE "02:00:52.83658"
    PERFORMER "Владимир Михайлович Зазнобин. Видеоархив"
    INDEX 01 120:52:63
  TRACK 499 AUDIO
    TITLE "02:01:07.41261"
    PERFORMER "Владимир Михайлович Зазнобин. Видеоархив"
    INDEX 01 121:07:31
  TRACK 500 AUDIO
    TITLE "02:01:21.63567"
    PERFORMER "Владимир Михайлович Зазнобин. Видеоархив"
    INDEX 01 121:21:48
  TRACK 501 AUDIO
    TITLE "02:01:37.35692"
    PERFORMER "Владимир Михайлович Зазнобин. Видеоархив"
    INDEX 01 121:37:27
  TRACK 502 AUDIO
    TITLE "02:01:52.06574"
    PERFORMER "Владимир Михайлович Зазнобин. Видеоархив"
    INDEX 01 121:52:05
  TRACK 503 AUDIO
    TITLE "02:02:09.80061"
    PERFORMER "Владимир Михайлович Зазнобин. Видеоархив"
    INDEX 01 122:09:60
  TRACK 504 AUDIO
    TITLE "02:02:25.02494"
    PERFORMER "Владимир Михайлович Зазнобин. Видеоархив"
    INDEX 01 122:25:02
  TRACK 505 AUDIO
    TITLE "02:02:38.22726"
    PERFORMER "Владимир Михайлович Зазнобин. Видеоархив"
    INDEX 01 122:38:17
  TRACK 506 AUDIO
    TITLE "02:02:51.95669"
    PERFORMER "Владимир Михайлович Зазнобин. Видеоархив"
    INDEX 01 122:51:72
  TRACK 507 AUDIO
    TITLE "02:03:04.88315"
    PERFORMER "Владимир Михайлович Зазнобин. Видеоархив"
    INDEX 01 123:04:66
  TRACK 508 AUDIO
    TITLE "02:03:20.06336"
    PERFORMER "Владимир Михайлович Зазнобин. Видеоархив"
    INDEX 01 123:20:05
  TRACK 509 AUDIO
    TITLE "02:03:33.66880"
    PERFORMER "Владимир Михайлович Зазнобин. Видеоархив"
    INDEX 01 123:33:50
  TRACK 510 AUDIO
    TITLE "02:03:47.58166"
    PERFORMER "Владимир Михайлович Зазнобин. Видеоархив"
    INDEX 01 123:47:44
  TRACK 511 AUDIO
    TITLE "02:04:00.64977"
    PERFORMER "Владимир Михайлович Зазнобин. Видеоархив"
    INDEX 01 124:00:49
  TRACK 512 AUDIO
    TITLE "02:04:16.68957"
    PERFORMER "Владимир Михайлович Зазнобин. Видеоархив"
    INDEX 01 124:16:52
  TRACK 513 AUDIO
    TITLE "02:04:32.05184"
    PERFORMER "Владимир Михайлович Зазнобин. Видеоархив"
    INDEX 01 124:32:04
  TRACK 514 AUDIO
    TITLE "02:04:46.61485"
    PERFORMER "Владимир Михайлович Зазнобин. Видеоархив"
    INDEX 01 124:46:46
  TRACK 515 AUDIO
    TITLE "02:05:02.98531"
    PERFORMER "Владимир Михайлович Зазнобин. Видеоархив"
    INDEX 01 125:02:74
  TRACK 516 AUDIO
    TITLE "02:05:16.89957"
    PERFORMER "Владимир Михайлович Зазнобин. Видеоархив"
    INDEX 01 125:16:67
  TRACK 517 AUDIO
    TITLE "02:05:31.02279"
    PERFORMER "Владимир Михайлович Зазнобин. Видеоархив"
    INDEX 01 125:31:02
  TRACK 518 AUDIO
    TITLE "02:05:50.39512"
    PERFORMER "Владимир Михайлович Зазнобин. Видеоархив"
    INDEX 01 125:50:30
  TRACK 519 AUDIO
    TITLE "02:06:03.85939"
    PERFORMER "Владимир Михайлович Зазнобин. Видеоархив"
    INDEX 01 126:03:64
  TRACK 520 AUDIO
    TITLE "02:06:20.17596"
    PERFORMER "Владимир Михайлович Зазнобин. Видеоархив"
    INDEX 01 126:20:13
  TRACK 521 AUDIO
    TITLE "02:06:34.84719"
    PERFORMER "Владимир Михайлович Зазнобин. Видеоархив"
    INDEX 01 126:34:64
  TRACK 522 AUDIO
    TITLE "02:06:49.36238"
    PERFORMER "Владимир Михайлович Зазнобин. Видеоархив"
    INDEX 01 126:49:27
  TRACK 523 AUDIO
    TITLE "02:07:04.19660"
    PERFORMER "Владимир Михайлович Зазнобин. Видеоархив"
    INDEX 01 127:04:15
  TRACK 524 AUDIO
    TITLE "02:07:17.05016"
    PERFORMER "Владимир Михайлович Зазнобин. Видеоархив"
    INDEX 01 127:17:04
  TRACK 525 AUDIO
    TITLE "02:07:32.95345"
    PERFORMER "Владимир Михайлович Зазнобин. Видеоархив"
    INDEX 01 127:32:72
  TRACK 526 AUDIO
    TITLE "02:07:47.20717"
    PERFORMER "Владимир Михайлович Зазнобин. Видеоархив"
    INDEX 01 127:47:16
  TRACK 527 AUDIO
    TITLE "02:08:00.40533"
    PERFORMER "Владимир Михайлович Зазнобин. Видеоархив"
    INDEX 01 128:00:30
  TRACK 528 AUDIO
    TITLE "02:08:14.99528"
    PERFORMER "Владимир Михайлович Зазнобин. Видеоархив"
    INDEX 01 128:15:00
  TRACK 529 AUDIO
    TITLE "02:08:30.20150"
    PERFORMER "Владимир Михайлович Зазнобин. Видеоархив"
    INDEX 01 128:30:15
  TRACK 530 AUDIO
    TITLE "02:08:45.04546"
    PERFORMER "Владимир Михайлович Зазнобин. Видеоархив"
    INDEX 01 128:45:03
  TRACK 531 AUDIO
    TITLE "02:08:59.41252"
    PERFORMER "Владимир Михайлович Зазнобин. Видеоархив"
    INDEX 01 128:59:31
  TRACK 532 AUDIO
    TITLE "02:09:14.45247"
    PERFORMER "Владимир Михайлович Зазнобин. Видеоархив"
    INDEX 01 129:14:34
  TRACK 533 AUDIO
    TITLE "02:09:29.25420"
    PERFORMER "Владимир Михайлович Зазнобин. Видеоархив"
    INDEX 01 129:29:19
  TRACK 534 AUDIO
    TITLE "02:09:44.14694"
    PERFORMER "Владимир Михайлович Зазнобин. Видеоархив"
    INDEX 01 129:44:11
  TRACK 535 AUDIO
    TITLE "02:09:58.52186"
    PERFORMER "Владимир Михайлович Зазнобин. Видеоархив"
    INDEX 01 129:58:39
  TRACK 536 AUDIO
    TITLE "02:10:13.85440"
    PERFORMER "Владимир Михайлович Зазнобин. Видеоархив"
    INDEX 01 130:13:64
  TRACK 537 AUDIO
    TITLE "02:10:29.30535"
    PERFORMER "Владимир Михайлович Зазнобин. Видеоархив"
    INDEX 01 130:29:23
  TRACK 538 AUDIO
    TITLE "02:10:45.15011"
    PERFORMER "Владимир Михайлович Зазнобин. Видеоархив"
    INDEX 01 130:45:11
  TRACK 539 AUDIO
    TITLE "02:10:58.99238"
    PERFORMER "Владимир Михайлович Зазнобин. Видеоархив"
    INDEX 01 130:58:74
  TRACK 540 AUDIO
    TITLE "02:11:12.59315"
    PERFORMER "Владимир Михайлович Зазнобин. Видеоархив"
    INDEX 01 131:12:44
  TRACK 541 AUDIO
    TITLE "02:11:25.65245"
    PERFORMER "Владимир Михайлович Зазнобин. Видеоархив"
    INDEX 01 131:25:49
  TRACK 542 AUDIO
    TITLE "02:11:38.77816"
    PERFORMER "Владимир Михайлович Зазнобин. Видеоархив"
    INDEX 01 131:38:58
  TRACK 543 AUDIO
    TITLE "02:11:51.71345"
    PERFORMER "Владимир Михайлович Зазнобин. Видеоархив"
    INDEX 01 131:51:54
  TRACK 544 AUDIO
    TITLE "02:12:04.82152"
    PERFORMER "Владимир Михайлович Зазнобин. Видеоархив"
    INDEX 01 132:04:62
  TRACK 545 AUDIO
    TITLE "02:12:19.01533"
    PERFORMER "Владимир Михайлович Зазнобин. Видеоархив"
    INDEX 01 132:19:01
  TRACK 546 AUDIO
    TITLE "02:12:33.66705"
    PERFORMER "Владимир Михайлович Зазнобин. Видеоархив"
    INDEX 01 132:33:50
  TRACK 547 AUDIO
    TITLE "02:12:47.29014"
    PERFORMER "Владимир Михайлович Зазнобин. Видеоархив"
    INDEX 01 132:47:22
  TRACK 548 AUDIO
    TITLE "02:13:04.15052"
    PERFORMER "Владимир Михайлович Зазнобин. Видеоархив"
    INDEX 01 133:04:11
  TRACK 549 AUDIO
    TITLE "02:13:19.55921"
    PERFORMER "Владимир Михайлович Зазнобин. Видеоархив"
    INDEX 01 133:19:42
  TRACK 550 AUDIO
    TITLE "02:13:33.92950"
    PERFORMER "Владимир Михайлович Зазнобин. Видеоархив"
    INDEX 01 133:33:70
  TRACK 551 AUDIO
    TITLE "02:13:47.45041"
    PERFORMER "Владимир Михайлович Зазнобин. Видеоархив"
    INDEX 01 133:47:34
  TRACK 552 AUDIO
    TITLE "02:14:00.25755"
    PERFORMER "Владимир Михайлович Зазнобин. Видеоархив"
    INDEX 01 134:00:19
  TRACK 553 AUDIO
    TITLE "02:14:16.62290"
    PERFORMER "Владимир Михайлович Зазнобин. Видеоархив"
    INDEX 01 134:16:47
  TRACK 554 AUDIO
    TITLE "02:14:30.46098"
    PERFORMER "Владимир Михайлович Зазнобин. Видеоархив"
    INDEX 01 134:30:35
  TRACK 555 AUDIO
    TITLE "02:14:43.59737"
    PERFORMER "Владимир Михайлович Зазнобин. Видеоархив"
    INDEX 01 134:43:45
  TRACK 556 AUDIO
    TITLE "02:14:58.28252"
    PERFORMER "Владимир Михайлович Зазнобин. Видеоархив"
    INDEX 01 134:58:21
  TRACK 557 AUDIO
    TITLE "02:15:11.46070"
    PERFORMER "Владимир Михайлович Зазнобин. Видеоархив"
    INDEX 01 135:11:35
  TRACK 558 AUDIO
    TITLE "02:15:26.52574"
    PERFORMER "Владимир Михайлович Зазнобин. Видеоархив"
    INDEX 01 135:26:39
  TRACK 559 AUDIO
    TITLE "02:15:41.53320"
    PERFORMER "Владимир Михайлович Зазнобин. Видеоархив"
    INDEX 01 135:41:40
  TRACK 560 AUDIO
    TITLE "02:15:54.39789"
    PERFORMER "Владимир Михайлович Зазнобин. Видеоархив"
    INDEX 01 135:54:30
  TRACK 561 AUDIO
    TITLE "02:16:12.07238"
    PERFORMER "Владимир Михайлович Зазнобин. Видеоархив"
    INDEX 01 136:12:05
  TRACK 562 AUDIO
    TITLE "02:16:25.32209"
    PERFORMER "Владимир Михайлович Зазнобин. Видеоархив"
    INDEX 01 136:25:24
  TRACK 563 AUDIO
    TITLE "02:16:39.80755"
    PERFORMER "Владимир Михайлович Зазнобин. Видеоархив"
    INDEX 01 136:39:61
  TRACK 564 AUDIO
    TITLE "02:16:52.66993"
    PERFORMER "Владимир Михайлович Зазнобин. Видеоархив"
    INDEX 01 136:52:50
  TRACK 565 AUDIO
    TITLE "02:17:06.63435"
    PERFORMER "Владимир Михайлович Зазнобин. Видеоархив"
    INDEX 01 137:06:48
  TRACK 566 AUDIO
    TITLE "02:17:21.72306"
    PERFORMER "Владимир Михайлович Зазнобин. Видеоархив"
    INDEX 01 137:21:54
  TRACK 567 AUDIO
    TITLE "02:17:34.86875"
    PERFORMER "Владимир Михайлович Зазнобин. Видеоархив"
    INDEX 01 137:34:65
  TRACK 568 AUDIO
    TITLE "02:17:48.37712"
    PERFORMER "Владимир Михайлович Зазнобин. Видеоархив"
    INDEX 01 137:48:28
  TRACK 569 AUDIO
    TITLE "02:18:01.42943"
    PERFORMER "Владимир Михайлович Зазнобин. Видеоархив"
    INDEX 01 138:01:32
  TRACK 570 AUDIO
    TITLE "02:18:17.64247"
    PERFORMER "Владимир Михайлович Зазнобин. Видеоархив"
    INDEX 01 138:17:48
  TRACK 571 AUDIO
    TITLE "02:18:31.16617"
    PERFORMER "Владимир Михайлович Зазнобин. Видеоархив"
    INDEX 01 138:31:12
  TRACK 572 AUDIO
    TITLE "02:18:44.54590"
    PERFORMER "Владимир Михайлович Зазнобин. Видеоархив"
    INDEX 01 138:44:41
  TRACK 573 AUDIO
    TITLE "02:18:57.77098"
    PERFORMER "Владимир Михайлович Зазнобин. Видеоархив"
    INDEX 01 138:57:58
  TRACK 574 AUDIO
    TITLE "02:19:13.42254"
    PERFORMER "Владимир Михайлович Зазнобин. Видеоархив"
    INDEX 01 139:13:32
  TRACK 575 AUDIO
    TITLE "02:19:26.49669"
    PERFORMER "Владимир Михайлович Зазнобин. Видеоархив"
    INDEX 01 139:26:37
  TRACK 576 AUDIO
    TITLE "02:19:40.48712"
    PERFORMER "Владимир Михайлович Зазнобин. Видеоархив"
    INDEX 01 139:40:37
  TRACK 577 AUDIO
    TITLE "02:19:55.48249"
    PERFORMER "Владимир Михайлович Зазнобин. Видеоархив"
    INDEX 01 139:55:36
  TRACK 578 AUDIO
    TITLE "02:20:08.92537"
    PERFORMER "Владимир Михайлович Зазнобин. Видеоархив"
    INDEX 01 140:08:69
  TRACK 579 AUDIO
    TITLE "02:20:22.08871"
    PERFORMER "Владимир Михайлович Зазнобин. Видеоархив"
    INDEX 01 140:22:07
  TRACK 580 AUDIO
    TITLE "02:20:35.52184"
    PERFORMER "Владимир Михайлович Зазнобин. Видеоархив"
    INDEX 01 140:35:39
  TRACK 581 AUDIO
    TITLE "02:20:49.45930"
    PERFORMER "Владимир Михайлович Зазнобин. Видеоархив"
    INDEX 01 140:49:34
  TRACK 582 AUDIO
    TITLE "02:21:17.38308"
    PERFORMER "Владимир Михайлович Зазнобин. Видеоархив"
    INDEX 01 141:17:29
  TRACK 583 AUDIO
    TITLE "02:21:33.96764"
    PERFORMER "Владимир Михайлович Зазнобин. Видеоархив"
    INDEX 01 141:33:73
  TRACK 584 AUDIO
    TITLE "02:21:48.94211"
    PERFORMER "Владимир Михайлович Зазнобин. Видеоархив"
    INDEX 01 141:48:71
  TRACK 585 AUDIO
    TITLE "02:22:04.22680"
    PERFORMER "Владимир Михайлович Зазнобин. Видеоархив"
    INDEX 01 142:04:17
  TRACK 586 AUDIO
    TITLE "02:22:18.62590"
    PERFORMER "Владимир Михайлович Зазнобин. Видеоархив"
    INDEX 01 142:18:47
  TRACK 587 AUDIO
    TITLE "02:22:33.24000"
    PERFORMER "Владимир Михайлович Зазнобин. Видеоархив"
    INDEX 01 142:33:18
  TRACK 588 AUDIO
    TITLE "02:22:49.36061"
    PERFORMER "Владимир Михайлович Зазнобин. Видеоархив"
    INDEX 01 142:49:27
  TRACK 589 AUDIO
    TITLE "02:23:06.00878"
    PERFORMER "Владимир Михайлович Зазнобин. Видеоархив"
    INDEX 01 143:06:01
  TRACK 590 AUDIO
    TITLE "02:23:20.83186"
    PERFORMER "Владимир Михайлович Зазнобин. Видеоархив"
    INDEX 01 143:20:62
  TRACK 591 AUDIO
    TITLE "02:23:35.98374"
    PERFORMER "Владимир Михайлович Зазнобин. Видеоархив"
    INDEX 01 143:35:74
  TRACK 592 AUDIO
    TITLE "02:23:51.02649"
    PERFORMER "Владимир Михайлович Зазнобин. Видеоархив"
    INDEX 01 143:51:02
  TRACK 593 AUDIO
    TITLE "02:24:06.91118"
    PERFORMER "Владимир Михайлович Зазнобин. Видеоархив"
    INDEX 01 144:06:68
  TRACK 594 AUDIO
    TITLE "02:24:27.62424"
    PERFORMER "Владимир Михайлович Зазнобин. Видеоархив"
    INDEX 01 144:27:47
  TRACK 595 AUDIO
    TITLE "02:24:41.12379"
    PERFORMER "Владимир Михайлович Зазнобин. Видеоархив"
    INDEX 01 144:41:09
  TRACK 596 AUDIO
    TITLE "02:24:55.49268"
    PERFORMER "Владимир Михайлович Зазнобин. Видеоархив"
    INDEX 01 144:55:37
  TRACK 597 AUDIO
    TITLE "02:25:09.26993"
    PERFORMER "Владимир Михайлович Зазнобин. Видеоархив"
    INDEX 01 145:09:20
  TRACK 598 AUDIO
    TITLE "02:25:22.93946"
    PERFORMER "Владимир Михайлович Зазнобин. Видеоархив"
    INDEX 01 145:22:70
  TRACK 599 AUDIO
    TITLE "02:25:36.54719"
    PERFORMER "Владимир Михайлович Зазнобин. Видеоархив"
    INDEX 01 145:36:41
  TRACK 600 AUDIO
    TITLE "02:25:50.74612"
    PERFORMER "Владимир Михайлович Зазнобин. Видеоархив"
    INDEX 01 145:50:56
  TRACK 601 AUDIO
    TITLE "02:26:07.24755"
    PERFORMER "Владимир Михайлович Зазнобин. Видеоархив"
    INDEX 01 146:07:19
  TRACK 602 AUDIO
    TITLE "02:26:22.37342"
    PERFORMER "Владимир Михайлович Зазнобин. Видеоархив"
    INDEX 01 146:22:28
  TRACK 603 AUDIO
    TITLE "02:26:36.92483"
    PERFORMER "Владимир Михайлович Зазнобин. Видеоархив"
    INDEX 01 146:36:69
  TRACK 604 AUDIO
    TITLE "02:26:51.00161"
    PERFORMER "Владимир Михайлович Зазнобин. Видеоархив"
    INDEX 01 146:51:00
  TRACK 605 AUDIO
    TITLE "02:27:06.61510"
    PERFORMER "Владимир Михайлович Зазнобин. Видеоархив"
    INDEX 01 147:06:46
  TRACK 606 AUDIO
    TITLE "02:27:19.95259"
    PERFORMER "Владимир Михайлович Зазнобин. Видеоархив"
    INDEX 01 147:19:71
  TRACK 607 AUDIO
    TITLE "02:27:34.27968"
    PERFORMER "Владимир Михайлович Зазнобин. Видеоархив"
    INDEX 01 147:34:21
  TRACK 608 AUDIO
    TITLE "02:27:49.11624"
    PERFORMER "Владимир Михайлович Зазнобин. Видеоархив"
    INDEX 01 147:49:09
  TRACK 609 AUDIO
    TITLE "02:28:02.19317"
    PERFORMER "Владимир Михайлович Зазнобин. Видеоархив"
    INDEX 01 148:02:14
  TRACK 610 AUDIO
    TITLE "02:28:14.99798"
    PERFORMER "Владимир Михайлович Зазнобин. Видеоархив"
    INDEX 01 148:15:00
  TRACK 611 AUDIO
    TITLE "02:28:28.30526"
    PERFORMER "Владимир Михайлович Зазнобин. Видеоархив"
    INDEX 01 148:28:23
  TRACK 612 AUDIO
    TITLE "02:28:43.06147"
    PERFORMER "Владимир Михайлович Зазнобин. Видеоархив"
    INDEX 01 148:43:05
  TRACK 613 AUDIO
    TITLE "02:28:58.97170"
    PERFORMER "Владимир Михайлович Зазнобин. Видеоархив"
    INDEX 01 148:58:73
  TRACK 614 AUDIO
    TITLE "02:29:13.63782"
    PERFORMER "Владимир Михайлович Зазнобин. Видеоархив"
    INDEX 01 149:13:48
  TRACK 615 AUDIO
    TITLE "02:29:26.72961"
    PERFORMER "Владимир Михайлович Зазнобин. Видеоархив"
    INDEX 01 149:26:55
  TRACK 616 AUDIO
    TITLE "02:29:40.50594"
    PERFORMER "Владимир Михайлович Зазнобин. Видеоархив"
    INDEX 01 149:40:38
  TRACK 617 AUDIO
    TITLE "02:29:55.05132"
    PERFORMER "Владимир Михайлович Зазнобин. Видеоархив"
    INDEX 01 149:55:04
  TRACK 618 AUDIO
    TITLE "02:30:09.47687"
    PERFORMER "Владимир Михайлович Зазнобин. Видеоархив"
    INDEX 01 150:09:36
  TRACK 619 AUDIO
    TITLE "02:30:22.47626"
    PERFORMER "Владимир Михайлович Зазнобин. Видеоархив"
    INDEX 01 150:22:36
  TRACK 620 AUDIO
    TITLE "02:30:36.40027"
    PERFORMER "Владимир Михайлович Зазнобин. Видеоархив"
    INDEX 01 150:36:30
  TRACK 621 AUDIO
    TITLE "02:30:49.34671"
    PERFORMER "Владимир Михайлович Зазнобин. Видеоархив"
    INDEX 01 150:49:26
  TRACK 622 AUDIO
    TITLE "02:31:03.79689"
    PERFORMER "Владимир Михайлович Зазнобин. Видеоархив"
    INDEX 01 151:03:60
  TRACK 623 AUDIO
    TITLE "02:31:16.57755"
    PERFORMER "Владимир Михайлович Зазнобин. Видеоархив"
    INDEX 01 151:16:43
  TRACK 624 AUDIO
    TITLE "02:31:30.70542"
    PERFORMER "Владимир Михайлович Зазнобин. Видеоархив"
    INDEX 01 151:30:53
  TRACK 625 AUDIO
    TITLE "02:31:53.48785"
    PERFORMER "Владимир Михайлович Зазнобин. Видеоархив"
    INDEX 01 151:53:37
  TRACK 626 AUDIO
    TITLE "02:32:07.02964"
    PERFORMER "Владимир Михайлович Зазнобин. Видеоархив"
    INDEX 01 152:07:02
  TRACK 627 AUDIO
    TITLE "02:32:26.61605"
    PERFORMER "Владимир Михайлович Зазнобин. Видеоархив"
    INDEX 01 152:26:46
  TRACK 628 AUDIO
    TITLE "02:32:41.37227"
    PERFORMER "Владимир Михайлович Зазнобин. Видеоархив"
    INDEX 01 152:41:28
  TRACK 629 AUDIO
    TITLE "02:32:55.53313"
    PERFORMER "Владимир Михайлович Зазнобин. Видеоархив"
    INDEX 01 152:55:40
  TRACK 630 AUDIO
    TITLE "02:33:11.91984"
    PERFORMER "Владимир Михайлович Зазнобин. Видеоархив"
    INDEX 01 153:11:69
  TRACK 631 AUDIO
    TITLE "02:33:25.81968"
    PERFORMER "Владимир Михайлович Зазнобин. Видеоархив"
    INDEX 01 153:25:61
  TRACK 632 AUDIO
    TITLE "02:33:39.10701"
    PERFORMER "Владимир Михайлович Зазнобин. Видеоархив"
    INDEX 01 153:39:08
  TRACK 633 AUDIO
    TITLE "02:33:54.05036"
    PERFORMER "Владимир Михайлович Зазнобин. Видеоархив"
    INDEX 01 153:54:04
  TRACK 634 AUDIO
    TITLE "02:34:07.38830"
    PERFORMER "Владимир Михайлович Зазнобин. Видеоархив"
    INDEX 01 154:07:29
  TRACK 635 AUDIO
    TITLE "02:34:20.73923"
    PERFORMER "Владимир Михайлович Зазнобин. Видеоархив"
    INDEX 01 154:20:55
  TRACK 636 AUDIO
    TITLE "02:34:33.59281"
    PERFORMER "Владимир Михайлович Зазнобин. Видеоархив"
    INDEX 01 154:33:44
  TRACK 637 AUDIO
    TITLE "02:34:52.00152"
    PERFORMER "Владимир Михайлович Зазнобин. Видеоархив"
    INDEX 01 154:52:00
  TRACK 638 AUDIO
    TITLE "02:35:05.88605"
    PERFORMER "Владимир Михайлович Зазнобин. Видеоархив"
    INDEX 01 155:05:66
  TRACK 639 AUDIO
    TITLE "02:35:19.80540"
    PERFORMER "Владимир Михайлович Зазнобин. Видеоархив"
    INDEX 01 155:19:60
  TRACK 640 AUDIO
    TITLE "02:35:35.37059"
    PERFORMER "Владимир Михайлович Зазнобин. Видеоархив"
    INDEX 01 155:35:28
  TRACK 641 AUDIO
    TITLE "02:35:51.70855"
    PERFORMER "Владимир Михайлович Зазнобин. Видеоархив"
    INDEX 01 155:51:53
  TRACK 642 AUDIO
    TITLE "02:36:07.87188"
    PERFORMER "Владимир Михайлович Зазнобин. Видеоархив"
    INDEX 01 156:07:65
  TRACK 643 AUDIO
    TITLE "02:36:23.45102"
    PERFORMER "Владимир Михайлович Зазнобин. Видеоархив"
    INDEX 01 156:23:34
